# Original modular mossy concrete maze wall for raylib
# Y-up, units approximately meters. No baked lighting.
mtllib maze_wall.mtl
v -6.000000 0.000000 1.200000
v 6.000000 0.000000 1.200000
v 6.000000 14.000000 1.200000
v -6.000000 14.000000 1.200000
v 6.000000 0.000000 -1.200000
v -6.000000 0.000000 -1.200000
v -6.000000 14.000000 -1.200000
v 6.000000 14.000000 -1.200000
v 6.000000 0.000000 1.200000
v 6.000000 0.000000 -1.200000
v 6.000000 14.000000 -1.200000
v 6.000000 14.000000 1.200000
v -6.000000 0.000000 -1.200000
v -6.000000 0.000000 1.200000
v -6.000000 14.000000 1.200000
v -6.000000 14.000000 -1.200000
v -6.000000 14.000000 1.200000
v 6.000000 14.000000 1.200000
v 6.000000 14.000000 -1.200000
v -6.000000 14.000000 -1.200000
v -6.000000 0.000000 -1.200000
v 6.000000 0.000000 -1.200000
v 6.000000 0.000000 1.200000
v -6.000000 0.000000 1.200000
v -5.610000 -0.175000 1.370000
v -5.090000 -0.175000 1.370000
v -5.090000 14.175000 1.370000
v -5.610000 14.175000 1.370000
v -5.090000 -0.175000 -1.370000
v -5.610000 -0.175000 -1.370000
v -5.610000 14.175000 -1.370000
v -5.090000 14.175000 -1.370000
v -5.090000 -0.175000 1.370000
v -5.090000 -0.175000 -1.370000
v -5.090000 14.175000 -1.370000
v -5.090000 14.175000 1.370000
v -5.610000 -0.175000 -1.370000
v -5.610000 -0.175000 1.370000
v -5.610000 14.175000 1.370000
v -5.610000 14.175000 -1.370000
v -5.610000 14.175000 1.370000
v -5.090000 14.175000 1.370000
v -5.090000 14.175000 -1.370000
v -5.610000 14.175000 -1.370000
v -5.610000 -0.175000 -1.370000
v -5.090000 -0.175000 -1.370000
v -5.090000 -0.175000 1.370000
v -5.610000 -0.175000 1.370000
v -2.060000 -0.175000 1.370000
v -1.540000 -0.175000 1.370000
v -1.540000 14.175000 1.370000
v -2.060000 14.175000 1.370000
v -1.540000 -0.175000 -1.370000
v -2.060000 -0.175000 -1.370000
v -2.060000 14.175000 -1.370000
v -1.540000 14.175000 -1.370000
v -1.540000 -0.175000 1.370000
v -1.540000 -0.175000 -1.370000
v -1.540000 14.175000 -1.370000
v -1.540000 14.175000 1.370000
v -2.060000 -0.175000 -1.370000
v -2.060000 -0.175000 1.370000
v -2.060000 14.175000 1.370000
v -2.060000 14.175000 -1.370000
v -2.060000 14.175000 1.370000
v -1.540000 14.175000 1.370000
v -1.540000 14.175000 -1.370000
v -2.060000 14.175000 -1.370000
v -2.060000 -0.175000 -1.370000
v -1.540000 -0.175000 -1.370000
v -1.540000 -0.175000 1.370000
v -2.060000 -0.175000 1.370000
v 1.540000 -0.175000 1.370000
v 2.060000 -0.175000 1.370000
v 2.060000 14.175000 1.370000
v 1.540000 14.175000 1.370000
v 2.060000 -0.175000 -1.370000
v 1.540000 -0.175000 -1.370000
v 1.540000 14.175000 -1.370000
v 2.060000 14.175000 -1.370000
v 2.060000 -0.175000 1.370000
v 2.060000 -0.175000 -1.370000
v 2.060000 14.175000 -1.370000
v 2.060000 14.175000 1.370000
v 1.540000 -0.175000 -1.370000
v 1.540000 -0.175000 1.370000
v 1.540000 14.175000 1.370000
v 1.540000 14.175000 -1.370000
v 1.540000 14.175000 1.370000
v 2.060000 14.175000 1.370000
v 2.060000 14.175000 -1.370000
v 1.540000 14.175000 -1.370000
v 1.540000 -0.175000 -1.370000
v 2.060000 -0.175000 -1.370000
v 2.060000 -0.175000 1.370000
v 1.540000 -0.175000 1.370000
v 5.090000 -0.175000 1.370000
v 5.610000 -0.175000 1.370000
v 5.610000 14.175000 1.370000
v 5.090000 14.175000 1.370000
v 5.610000 -0.175000 -1.370000
v 5.090000 -0.175000 -1.370000
v 5.090000 14.175000 -1.370000
v 5.610000 14.175000 -1.370000
v 5.610000 -0.175000 1.370000
v 5.610000 -0.175000 -1.370000
v 5.610000 14.175000 -1.370000
v 5.610000 14.175000 1.370000
v 5.090000 -0.175000 -1.370000
v 5.090000 -0.175000 1.370000
v 5.090000 14.175000 1.370000
v 5.090000 14.175000 -1.370000
v 5.090000 14.175000 1.370000
v 5.610000 14.175000 1.370000
v 5.610000 14.175000 -1.370000
v 5.090000 14.175000 -1.370000
v 5.090000 -0.175000 -1.370000
v 5.610000 -0.175000 -1.370000
v 5.610000 -0.175000 1.370000
v 5.090000 -0.175000 1.370000
v -6.275000 0.000000 1.425000
v 6.275000 0.000000 1.425000
v 6.275000 0.700000 1.425000
v -6.275000 0.700000 1.425000
v 6.275000 0.000000 -1.425000
v -6.275000 0.000000 -1.425000
v -6.275000 0.700000 -1.425000
v 6.275000 0.700000 -1.425000
v 6.275000 0.000000 1.425000
v 6.275000 0.000000 -1.425000
v 6.275000 0.700000 -1.425000
v 6.275000 0.700000 1.425000
v -6.275000 0.000000 -1.425000
v -6.275000 0.000000 1.425000
v -6.275000 0.700000 1.425000
v -6.275000 0.700000 -1.425000
v -6.275000 0.700000 1.425000
v 6.275000 0.700000 1.425000
v 6.275000 0.700000 -1.425000
v -6.275000 0.700000 -1.425000
v -6.275000 0.000000 -1.425000
v 6.275000 0.000000 -1.425000
v 6.275000 0.000000 1.425000
v -6.275000 0.000000 1.425000
v -6.275000 13.475000 1.410000
v 6.275000 13.475000 1.410000
v 6.275000 14.125000 1.410000
v -6.275000 14.125000 1.410000
v 6.275000 13.475000 -1.410000
v -6.275000 13.475000 -1.410000
v -6.275000 14.125000 -1.410000
v 6.275000 14.125000 -1.410000
v 6.275000 13.475000 1.410000
v 6.275000 13.475000 -1.410000
v 6.275000 14.125000 -1.410000
v 6.275000 14.125000 1.410000
v -6.275000 13.475000 -1.410000
v -6.275000 13.475000 1.410000
v -6.275000 14.125000 1.410000
v -6.275000 14.125000 -1.410000
v -6.275000 14.125000 1.410000
v 6.275000 14.125000 1.410000
v 6.275000 14.125000 -1.410000
v -6.275000 14.125000 -1.410000
v -6.275000 13.475000 -1.410000
v 6.275000 13.475000 -1.410000
v 6.275000 13.475000 1.410000
v -6.275000 13.475000 1.410000
v -3.602500 0.575000 1.224500
v -3.557500 0.575000 1.224500
v -3.557500 13.425000 1.224500
v -3.602500 13.425000 1.224500
v -3.557500 0.575000 1.199500
v -3.602500 0.575000 1.199500
v -3.602500 13.425000 1.199500
v -3.557500 13.425000 1.199500
v -3.557500 0.575000 1.224500
v -3.557500 0.575000 1.199500
v -3.557500 13.425000 1.199500
v -3.557500 13.425000 1.224500
v -3.602500 0.575000 1.199500
v -3.602500 0.575000 1.224500
v -3.602500 13.425000 1.224500
v -3.602500 13.425000 1.199500
v -3.602500 13.425000 1.224500
v -3.557500 13.425000 1.224500
v -3.557500 13.425000 1.199500
v -3.602500 13.425000 1.199500
v -3.602500 0.575000 1.199500
v -3.557500 0.575000 1.199500
v -3.557500 0.575000 1.224500
v -3.602500 0.575000 1.224500
v -0.022500 0.575000 1.224500
v 0.022500 0.575000 1.224500
v 0.022500 13.425000 1.224500
v -0.022500 13.425000 1.224500
v 0.022500 0.575000 1.199500
v -0.022500 0.575000 1.199500
v -0.022500 13.425000 1.199500
v 0.022500 13.425000 1.199500
v 0.022500 0.575000 1.224500
v 0.022500 0.575000 1.199500
v 0.022500 13.425000 1.199500
v 0.022500 13.425000 1.224500
v -0.022500 0.575000 1.199500
v -0.022500 0.575000 1.224500
v -0.022500 13.425000 1.224500
v -0.022500 13.425000 1.199500
v -0.022500 13.425000 1.224500
v 0.022500 13.425000 1.224500
v 0.022500 13.425000 1.199500
v -0.022500 13.425000 1.199500
v -0.022500 0.575000 1.199500
v 0.022500 0.575000 1.199500
v 0.022500 0.575000 1.224500
v -0.022500 0.575000 1.224500
v 3.557500 0.575000 1.224500
v 3.602500 0.575000 1.224500
v 3.602500 13.425000 1.224500
v 3.557500 13.425000 1.224500
v 3.602500 0.575000 1.199500
v 3.557500 0.575000 1.199500
v 3.557500 13.425000 1.199500
v 3.602500 13.425000 1.199500
v 3.602500 0.575000 1.224500
v 3.602500 0.575000 1.199500
v 3.602500 13.425000 1.199500
v 3.602500 13.425000 1.224500
v 3.557500 0.575000 1.199500
v 3.557500 0.575000 1.224500
v 3.557500 13.425000 1.224500
v 3.557500 13.425000 1.199500
v 3.557500 13.425000 1.224500
v 3.602500 13.425000 1.224500
v 3.602500 13.425000 1.199500
v 3.557500 13.425000 1.199500
v 3.557500 0.575000 1.199500
v 3.602500 0.575000 1.199500
v 3.602500 0.575000 1.224500
v 3.557500 0.575000 1.224500
v -5.625000 4.627500 1.224500
v 5.625000 4.627500 1.224500
v 5.625000 4.672500 1.224500
v -5.625000 4.672500 1.224500
v 5.625000 4.627500 1.199500
v -5.625000 4.627500 1.199500
v -5.625000 4.672500 1.199500
v 5.625000 4.672500 1.199500
v 5.625000 4.627500 1.224500
v 5.625000 4.627500 1.199500
v 5.625000 4.672500 1.199500
v 5.625000 4.672500 1.224500
v -5.625000 4.627500 1.199500
v -5.625000 4.627500 1.224500
v -5.625000 4.672500 1.224500
v -5.625000 4.672500 1.199500
v -5.625000 4.672500 1.224500
v 5.625000 4.672500 1.224500
v 5.625000 4.672500 1.199500
v -5.625000 4.672500 1.199500
v -5.625000 4.627500 1.199500
v 5.625000 4.627500 1.199500
v 5.625000 4.627500 1.224500
v -5.625000 4.627500 1.224500
v -5.625000 9.277500 1.224500
v 5.625000 9.277500 1.224500
v 5.625000 9.322500 1.224500
v -5.625000 9.322500 1.224500
v 5.625000 9.277500 1.199500
v -5.625000 9.277500 1.199500
v -5.625000 9.322500 1.199500
v 5.625000 9.322500 1.199500
v 5.625000 9.277500 1.224500
v 5.625000 9.277500 1.199500
v 5.625000 9.322500 1.199500
v 5.625000 9.322500 1.224500
v -5.625000 9.277500 1.199500
v -5.625000 9.277500 1.224500
v -5.625000 9.322500 1.224500
v -5.625000 9.322500 1.199500
v -5.625000 9.322500 1.224500
v 5.625000 9.322500 1.224500
v 5.625000 9.322500 1.199500
v -5.625000 9.322500 1.199500
v -5.625000 9.277500 1.199500
v 5.625000 9.277500 1.199500
v 5.625000 9.277500 1.224500
v -5.625000 9.277500 1.224500
v -3.602500 0.575000 -1.199500
v -3.557500 0.575000 -1.199500
v -3.557500 13.425000 -1.199500
v -3.602500 13.425000 -1.199500
v -3.557500 0.575000 -1.224500
v -3.602500 0.575000 -1.224500
v -3.602500 13.425000 -1.224500
v -3.557500 13.425000 -1.224500
v -3.557500 0.575000 -1.199500
v -3.557500 0.575000 -1.224500
v -3.557500 13.425000 -1.224500
v -3.557500 13.425000 -1.199500
v -3.602500 0.575000 -1.224500
v -3.602500 0.575000 -1.199500
v -3.602500 13.425000 -1.199500
v -3.602500 13.425000 -1.224500
v -3.602500 13.425000 -1.199500
v -3.557500 13.425000 -1.199500
v -3.557500 13.425000 -1.224500
v -3.602500 13.425000 -1.224500
v -3.602500 0.575000 -1.224500
v -3.557500 0.575000 -1.224500
v -3.557500 0.575000 -1.199500
v -3.602500 0.575000 -1.199500
v -0.022500 0.575000 -1.199500
v 0.022500 0.575000 -1.199500
v 0.022500 13.425000 -1.199500
v -0.022500 13.425000 -1.199500
v 0.022500 0.575000 -1.224500
v -0.022500 0.575000 -1.224500
v -0.022500 13.425000 -1.224500
v 0.022500 13.425000 -1.224500
v 0.022500 0.575000 -1.199500
v 0.022500 0.575000 -1.224500
v 0.022500 13.425000 -1.224500
v 0.022500 13.425000 -1.199500
v -0.022500 0.575000 -1.224500
v -0.022500 0.575000 -1.199500
v -0.022500 13.425000 -1.199500
v -0.022500 13.425000 -1.224500
v -0.022500 13.425000 -1.199500
v 0.022500 13.425000 -1.199500
v 0.022500 13.425000 -1.224500
v -0.022500 13.425000 -1.224500
v -0.022500 0.575000 -1.224500
v 0.022500 0.575000 -1.224500
v 0.022500 0.575000 -1.199500
v -0.022500 0.575000 -1.199500
v 3.557500 0.575000 -1.199500
v 3.602500 0.575000 -1.199500
v 3.602500 13.425000 -1.199500
v 3.557500 13.425000 -1.199500
v 3.602500 0.575000 -1.224500
v 3.557500 0.575000 -1.224500
v 3.557500 13.425000 -1.224500
v 3.602500 13.425000 -1.224500
v 3.602500 0.575000 -1.199500
v 3.602500 0.575000 -1.224500
v 3.602500 13.425000 -1.224500
v 3.602500 13.425000 -1.199500
v 3.557500 0.575000 -1.224500
v 3.557500 0.575000 -1.199500
v 3.557500 13.425000 -1.199500
v 3.557500 13.425000 -1.224500
v 3.557500 13.425000 -1.199500
v 3.602500 13.425000 -1.199500
v 3.602500 13.425000 -1.224500
v 3.557500 13.425000 -1.224500
v 3.557500 0.575000 -1.224500
v 3.602500 0.575000 -1.224500
v 3.602500 0.575000 -1.199500
v 3.557500 0.575000 -1.199500
v -5.625000 4.627500 -1.199500
v 5.625000 4.627500 -1.199500
v 5.625000 4.672500 -1.199500
v -5.625000 4.672500 -1.199500
v 5.625000 4.627500 -1.224500
v -5.625000 4.627500 -1.224500
v -5.625000 4.672500 -1.224500
v 5.625000 4.672500 -1.224500
v 5.625000 4.627500 -1.199500
v 5.625000 4.627500 -1.224500
v 5.625000 4.672500 -1.224500
v 5.625000 4.672500 -1.199500
v -5.625000 4.627500 -1.224500
v -5.625000 4.627500 -1.199500
v -5.625000 4.672500 -1.199500
v -5.625000 4.672500 -1.224500
v -5.625000 4.672500 -1.199500
v 5.625000 4.672500 -1.199500
v 5.625000 4.672500 -1.224500
v -5.625000 4.672500 -1.224500
v -5.625000 4.627500 -1.224500
v 5.625000 4.627500 -1.224500
v 5.625000 4.627500 -1.199500
v -5.625000 4.627500 -1.199500
v -5.625000 9.277500 -1.199500
v 5.625000 9.277500 -1.199500
v 5.625000 9.322500 -1.199500
v -5.625000 9.322500 -1.199500
v 5.625000 9.277500 -1.224500
v -5.625000 9.277500 -1.224500
v -5.625000 9.322500 -1.224500
v 5.625000 9.322500 -1.224500
v 5.625000 9.277500 -1.199500
v 5.625000 9.277500 -1.224500
v 5.625000 9.322500 -1.224500
v 5.625000 9.322500 -1.199500
v -5.625000 9.277500 -1.224500
v -5.625000 9.277500 -1.199500
v -5.625000 9.322500 -1.199500
v -5.625000 9.322500 -1.224500
v -5.625000 9.322500 -1.199500
v 5.625000 9.322500 -1.199500
v 5.625000 9.322500 -1.224500
v -5.625000 9.322500 -1.224500
v -5.625000 9.277500 -1.224500
v 5.625000 9.277500 -1.224500
v 5.625000 9.277500 -1.199500
v -5.625000 9.277500 -1.199500
v -5.075000 2.350000 1.300000
v -3.925000 2.350000 1.300000
v -3.925000 3.850000 1.300000
v -5.075000 3.850000 1.300000
v -3.925000 2.350000 1.200000
v -5.075000 2.350000 1.200000
v -5.075000 3.850000 1.200000
v -3.925000 3.850000 1.200000
v -3.925000 2.350000 1.300000
v -3.925000 2.350000 1.200000
v -3.925000 3.850000 1.200000
v -3.925000 3.850000 1.300000
v -5.075000 2.350000 1.200000
v -5.075000 2.350000 1.300000
v -5.075000 3.850000 1.300000
v -5.075000 3.850000 1.200000
v -5.075000 3.850000 1.300000
v -3.925000 3.850000 1.300000
v -3.925000 3.850000 1.200000
v -5.075000 3.850000 1.200000
v -5.075000 2.350000 1.200000
v -3.925000 2.350000 1.200000
v -3.925000 2.350000 1.300000
v -5.075000 2.350000 1.300000
v 3.925000 2.350000 -1.200000
v 5.075000 2.350000 -1.200000
v 5.075000 3.850000 -1.200000
v 3.925000 3.850000 -1.200000
v 5.075000 2.350000 -1.300000
v 3.925000 2.350000 -1.300000
v 3.925000 3.850000 -1.300000
v 5.075000 3.850000 -1.300000
v 5.075000 2.350000 -1.200000
v 5.075000 2.350000 -1.300000
v 5.075000 3.850000 -1.300000
v 5.075000 3.850000 -1.200000
v 3.925000 2.350000 -1.300000
v 3.925000 2.350000 -1.200000
v 3.925000 3.850000 -1.200000
v 3.925000 3.850000 -1.300000
v 3.925000 3.850000 -1.200000
v 5.075000 3.850000 -1.200000
v 5.075000 3.850000 -1.300000
v 3.925000 3.850000 -1.300000
v 3.925000 2.350000 -1.300000
v 5.075000 2.350000 -1.300000
v 5.075000 2.350000 -1.200000
v 3.925000 2.350000 -1.200000
v 3.725000 6.575000 1.300000
v 5.075000 6.575000 1.300000
v 5.075000 8.225000 1.300000
v 3.725000 8.225000 1.300000
v 5.075000 6.575000 1.200000
v 3.725000 6.575000 1.200000
v 3.725000 8.225000 1.200000
v 5.075000 8.225000 1.200000
v 5.075000 6.575000 1.300000
v 5.075000 6.575000 1.200000
v 5.075000 8.225000 1.200000
v 5.075000 8.225000 1.300000
v 3.725000 6.575000 1.200000
v 3.725000 6.575000 1.300000
v 3.725000 8.225000 1.300000
v 3.725000 8.225000 1.200000
v 3.725000 8.225000 1.300000
v 5.075000 8.225000 1.300000
v 5.075000 8.225000 1.200000
v 3.725000 8.225000 1.200000
v 3.725000 6.575000 1.200000
v 5.075000 6.575000 1.200000
v 5.075000 6.575000 1.300000
v 3.725000 6.575000 1.300000
v -5.075000 6.575000 -1.200000
v -3.725000 6.575000 -1.200000
v -3.725000 8.225000 -1.200000
v -5.075000 8.225000 -1.200000
v -3.725000 6.575000 -1.300000
v -5.075000 6.575000 -1.300000
v -5.075000 8.225000 -1.300000
v -3.725000 8.225000 -1.300000
v -3.725000 6.575000 -1.200000
v -3.725000 6.575000 -1.300000
v -3.725000 8.225000 -1.300000
v -3.725000 8.225000 -1.200000
v -5.075000 6.575000 -1.300000
v -5.075000 6.575000 -1.200000
v -5.075000 8.225000 -1.200000
v -5.075000 8.225000 -1.300000
v -5.075000 8.225000 -1.200000
v -3.725000 8.225000 -1.200000
v -3.725000 8.225000 -1.300000
v -5.075000 8.225000 -1.300000
v -5.075000 6.575000 -1.300000
v -3.725000 6.575000 -1.300000
v -3.725000 6.575000 -1.200000
v -5.075000 6.575000 -1.200000
v -1.275000 11.025000 1.300000
v 0.275000 11.025000 1.300000
v 0.275000 11.975000 1.300000
v -1.275000 11.975000 1.300000
v 0.275000 11.025000 1.200000
v -1.275000 11.025000 1.200000
v -1.275000 11.975000 1.200000
v 0.275000 11.975000 1.200000
v 0.275000 11.025000 1.300000
v 0.275000 11.025000 1.200000
v 0.275000 11.975000 1.200000
v 0.275000 11.975000 1.300000
v -1.275000 11.025000 1.200000
v -1.275000 11.025000 1.300000
v -1.275000 11.975000 1.300000
v -1.275000 11.975000 1.200000
v -1.275000 11.975000 1.300000
v 0.275000 11.975000 1.300000
v 0.275000 11.975000 1.200000
v -1.275000 11.975000 1.200000
v -1.275000 11.025000 1.200000
v 0.275000 11.025000 1.200000
v 0.275000 11.025000 1.300000
v -1.275000 11.025000 1.300000
v -0.275000 11.025000 -1.200000
v 1.275000 11.025000 -1.200000
v 1.275000 11.975000 -1.200000
v -0.275000 11.975000 -1.200000
v 1.275000 11.025000 -1.300000
v -0.275000 11.025000 -1.300000
v -0.275000 11.975000 -1.300000
v 1.275000 11.975000 -1.300000
v 1.275000 11.025000 -1.200000
v 1.275000 11.025000 -1.300000
v 1.275000 11.975000 -1.300000
v 1.275000 11.975000 -1.200000
v -0.275000 11.025000 -1.300000
v -0.275000 11.025000 -1.200000
v -0.275000 11.975000 -1.200000
v -0.275000 11.975000 -1.300000
v -0.275000 11.975000 -1.200000
v 1.275000 11.975000 -1.200000
v 1.275000 11.975000 -1.300000
v -0.275000 11.975000 -1.300000
v -0.275000 11.025000 -1.300000
v 1.275000 11.025000 -1.300000
v 1.275000 11.025000 -1.200000
v -0.275000 11.025000 -1.200000
v -5.600000 14.000000 1.325000
v 5.600000 14.000000 1.325000
v 5.600000 14.180000 1.325000
v -5.600000 14.180000 1.325000
v 5.600000 14.000000 -1.325000
v -5.600000 14.000000 -1.325000
v -5.600000 14.180000 -1.325000
v 5.600000 14.180000 -1.325000
v 5.600000 14.000000 1.325000
v 5.600000 14.000000 -1.325000
v 5.600000 14.180000 -1.325000
v 5.600000 14.180000 1.325000
v -5.600000 14.000000 -1.325000
v -5.600000 14.000000 1.325000
v -5.600000 14.180000 1.325000
v -5.600000 14.180000 -1.325000
v -5.600000 14.180000 1.325000
v 5.600000 14.180000 1.325000
v 5.600000 14.180000 -1.325000
v -5.600000 14.180000 -1.325000
v -5.600000 14.000000 -1.325000
v 5.600000 14.000000 -1.325000
v 5.600000 14.000000 1.325000
v -5.600000 14.000000 1.325000
v -5.450000 12.293479 -1.210000
v -4.818522 12.293479 -1.210000
v -4.818522 13.650000 -1.210000
v -5.450000 13.650000 -1.210000
v -4.818522 12.293479 -1.310000
v -5.450000 12.293479 -1.310000
v -5.450000 13.650000 -1.310000
v -4.818522 13.650000 -1.310000
v -4.818522 12.293479 -1.210000
v -4.818522 12.293479 -1.310000
v -4.818522 13.650000 -1.310000
v -4.818522 13.650000 -1.210000
v -5.450000 12.293479 -1.310000
v -5.450000 12.293479 -1.210000
v -5.450000 13.650000 -1.210000
v -5.450000 13.650000 -1.310000
v -5.450000 13.650000 -1.210000
v -4.818522 13.650000 -1.210000
v -4.818522 13.650000 -1.310000
v -5.450000 13.650000 -1.310000
v -5.450000 12.293479 -1.310000
v -4.818522 12.293479 -1.310000
v -4.818522 12.293479 -1.210000
v -5.450000 12.293479 -1.210000
v -4.608009 13.109215 -1.210000
v -3.829473 13.109215 -1.210000
v -3.829473 13.650000 -1.210000
v -4.608009 13.650000 -1.210000
v -3.829473 13.109215 -1.310000
v -4.608009 13.109215 -1.310000
v -4.608009 13.650000 -1.310000
v -3.829473 13.650000 -1.310000
v -3.829473 13.109215 -1.210000
v -3.829473 13.109215 -1.310000
v -3.829473 13.650000 -1.310000
v -3.829473 13.650000 -1.210000
v -4.608009 13.109215 -1.310000
v -4.608009 13.109215 -1.210000
v -4.608009 13.650000 -1.210000
v -4.608009 13.650000 -1.310000
v -4.608009 13.650000 -1.210000
v -3.829473 13.650000 -1.210000
v -3.829473 13.650000 -1.310000
v -4.608009 13.650000 -1.310000
v -4.608009 13.109215 -1.310000
v -3.829473 13.109215 -1.310000
v -3.829473 13.109215 -1.210000
v -4.608009 13.109215 -1.210000
v -3.649573 13.148543 -1.210000
v -3.178984 13.148543 -1.210000
v -3.178984 13.650000 -1.210000
v -3.649573 13.650000 -1.210000
v -3.178984 13.148543 -1.310000
v -3.649573 13.148543 -1.310000
v -3.649573 13.650000 -1.310000
v -3.178984 13.650000 -1.310000
v -3.178984 13.148543 -1.210000
v -3.178984 13.148543 -1.310000
v -3.178984 13.650000 -1.310000
v -3.178984 13.650000 -1.210000
v -3.649573 13.148543 -1.310000
v -3.649573 13.148543 -1.210000
v -3.649573 13.650000 -1.210000
v -3.649573 13.650000 -1.310000
v -3.649573 13.650000 -1.210000
v -3.178984 13.650000 -1.210000
v -3.178984 13.650000 -1.310000
v -3.649573 13.650000 -1.310000
v -3.649573 13.148543 -1.310000
v -3.178984 13.148543 -1.310000
v -3.178984 13.148543 -1.210000
v -3.649573 13.148543 -1.210000
v -2.160827 12.120194 -1.210000
v -1.662088 12.120194 -1.210000
v -1.662088 13.650000 -1.210000
v -2.160827 13.650000 -1.210000
v -1.662088 12.120194 -1.310000
v -2.160827 12.120194 -1.310000
v -2.160827 13.650000 -1.310000
v -1.662088 13.650000 -1.310000
v -1.662088 12.120194 -1.210000
v -1.662088 12.120194 -1.310000
v -1.662088 13.650000 -1.310000
v -1.662088 13.650000 -1.210000
v -2.160827 12.120194 -1.310000
v -2.160827 12.120194 -1.210000
v -2.160827 13.650000 -1.210000
v -2.160827 13.650000 -1.310000
v -2.160827 13.650000 -1.210000
v -1.662088 13.650000 -1.210000
v -1.662088 13.650000 -1.310000
v -2.160827 13.650000 -1.310000
v -2.160827 12.120194 -1.310000
v -1.662088 12.120194 -1.310000
v -1.662088 12.120194 -1.210000
v -2.160827 12.120194 -1.210000
v -1.519236 12.439175 -1.210000
v -0.864358 12.439175 -1.210000
v -0.864358 13.650000 -1.210000
v -1.519236 13.650000 -1.210000
v -0.864358 12.439175 -1.310000
v -1.519236 12.439175 -1.310000
v -1.519236 13.650000 -1.310000
v -0.864358 13.650000 -1.310000
v -0.864358 12.439175 -1.210000
v -0.864358 12.439175 -1.310000
v -0.864358 13.650000 -1.310000
v -0.864358 13.650000 -1.210000
v -1.519236 12.439175 -1.310000
v -1.519236 12.439175 -1.210000
v -1.519236 13.650000 -1.210000
v -1.519236 13.650000 -1.310000
v -1.519236 13.650000 -1.210000
v -0.864358 13.650000 -1.210000
v -0.864358 13.650000 -1.310000
v -1.519236 13.650000 -1.310000
v -1.519236 12.439175 -1.310000
v -0.864358 12.439175 -1.310000
v -0.864358 12.439175 -1.210000
v -1.519236 12.439175 -1.210000
v -0.675577 11.976780 -1.210000
v 0.065274 11.976780 -1.210000
v 0.065274 13.650000 -1.210000
v -0.675577 13.650000 -1.210000
v 0.065274 11.976780 -1.310000
v -0.675577 11.976780 -1.310000
v -0.675577 13.650000 -1.310000
v 0.065274 13.650000 -1.310000
v 0.065274 11.976780 -1.210000
v 0.065274 11.976780 -1.310000
v 0.065274 13.650000 -1.310000
v 0.065274 13.650000 -1.210000
v -0.675577 11.976780 -1.310000
v -0.675577 11.976780 -1.210000
v -0.675577 13.650000 -1.210000
v -0.675577 13.650000 -1.310000
v -0.675577 13.650000 -1.210000
v 0.065274 13.650000 -1.210000
v 0.065274 13.650000 -1.310000
v -0.675577 13.650000 -1.310000
v -0.675577 11.976780 -1.310000
v 0.065274 11.976780 -1.310000
v 0.065274 11.976780 -1.210000
v -0.675577 11.976780 -1.210000
v 0.238828 12.124745 -1.210000
v 0.809644 12.124745 -1.210000
v 0.809644 13.650000 -1.210000
v 0.238828 13.650000 -1.210000
v 0.809644 12.124745 -1.310000
v 0.238828 12.124745 -1.310000
v 0.238828 13.650000 -1.310000
v 0.809644 13.650000 -1.310000
v 0.809644 12.124745 -1.210000
v 0.809644 12.124745 -1.310000
v 0.809644 13.650000 -1.310000
v 0.809644 13.650000 -1.210000
v 0.238828 12.124745 -1.310000
v 0.238828 12.124745 -1.210000
v 0.238828 13.650000 -1.210000
v 0.238828 13.650000 -1.310000
v 0.238828 13.650000 -1.210000
v 0.809644 13.650000 -1.210000
v 0.809644 13.650000 -1.310000
v 0.238828 13.650000 -1.310000
v 0.238828 12.124745 -1.310000
v 0.809644 12.124745 -1.310000
v 0.809644 12.124745 -1.210000
v 0.238828 12.124745 -1.210000
v 1.794150 13.166230 -1.210000
v 2.334837 13.166230 -1.210000
v 2.334837 13.650000 -1.210000
v 1.794150 13.650000 -1.210000
v 2.334837 13.166230 -1.310000
v 1.794150 13.166230 -1.310000
v 1.794150 13.650000 -1.310000
v 2.334837 13.650000 -1.310000
v 2.334837 13.166230 -1.210000
v 2.334837 13.166230 -1.310000
v 2.334837 13.650000 -1.310000
v 2.334837 13.650000 -1.210000
v 1.794150 13.166230 -1.310000
v 1.794150 13.166230 -1.210000
v 1.794150 13.650000 -1.210000
v 1.794150 13.650000 -1.310000
v 1.794150 13.650000 -1.210000
v 2.334837 13.650000 -1.210000
v 2.334837 13.650000 -1.310000
v 1.794150 13.650000 -1.310000
v 1.794150 13.166230 -1.310000
v 2.334837 13.166230 -1.310000
v 2.334837 13.166230 -1.210000
v 1.794150 13.166230 -1.210000
v 2.539723 11.832894 -1.210000
v 3.272009 11.832894 -1.210000
v 3.272009 13.650000 -1.210000
v 2.539723 13.650000 -1.210000
v 3.272009 11.832894 -1.310000
v 2.539723 11.832894 -1.310000
v 2.539723 13.650000 -1.310000
v 3.272009 13.650000 -1.310000
v 3.272009 11.832894 -1.210000
v 3.272009 11.832894 -1.310000
v 3.272009 13.650000 -1.310000
v 3.272009 13.650000 -1.210000
v 2.539723 11.832894 -1.310000
v 2.539723 11.832894 -1.210000
v 2.539723 13.650000 -1.210000
v 2.539723 13.650000 -1.310000
v 2.539723 13.650000 -1.210000
v 3.272009 13.650000 -1.210000
v 3.272009 13.650000 -1.310000
v 2.539723 13.650000 -1.310000
v 2.539723 11.832894 -1.310000
v 3.272009 11.832894 -1.310000
v 3.272009 11.832894 -1.210000
v 2.539723 11.832894 -1.210000
v 3.397962 13.101582 -1.210000
v 3.891203 13.101582 -1.210000
v 3.891203 13.650000 -1.210000
v 3.397962 13.650000 -1.210000
v 3.891203 13.101582 -1.310000
v 3.397962 13.101582 -1.310000
v 3.397962 13.650000 -1.310000
v 3.891203 13.650000 -1.310000
v 3.891203 13.101582 -1.210000
v 3.891203 13.101582 -1.310000
v 3.891203 13.650000 -1.310000
v 3.891203 13.650000 -1.210000
v 3.397962 13.101582 -1.310000
v 3.397962 13.101582 -1.210000
v 3.397962 13.650000 -1.210000
v 3.397962 13.650000 -1.310000
v 3.397962 13.650000 -1.210000
v 3.891203 13.650000 -1.210000
v 3.891203 13.650000 -1.310000
v 3.397962 13.650000 -1.310000
v 3.397962 13.101582 -1.310000
v 3.891203 13.101582 -1.310000
v 3.891203 13.101582 -1.210000
v 3.397962 13.101582 -1.210000
v 4.040731 12.664450 -1.210000
v 4.491237 12.664450 -1.210000
v 4.491237 13.650000 -1.210000
v 4.040731 13.650000 -1.210000
v 4.491237 12.664450 -1.310000
v 4.040731 12.664450 -1.310000
v 4.040731 13.650000 -1.310000
v 4.491237 13.650000 -1.310000
v 4.491237 12.664450 -1.210000
v 4.491237 12.664450 -1.310000
v 4.491237 13.650000 -1.310000
v 4.491237 13.650000 -1.210000
v 4.040731 12.664450 -1.310000
v 4.040731 12.664450 -1.210000
v 4.040731 13.650000 -1.210000
v 4.040731 13.650000 -1.310000
v 4.040731 13.650000 -1.210000
v 4.491237 13.650000 -1.210000
v 4.491237 13.650000 -1.310000
v 4.040731 13.650000 -1.310000
v 4.040731 12.664450 -1.310000
v 4.491237 12.664450 -1.310000
v 4.491237 12.664450 -1.210000
v 4.040731 12.664450 -1.210000
v 4.680508 13.331341 -1.210000
v 5.312098 13.331341 -1.210000
v 5.312098 13.650000 -1.210000
v 4.680508 13.650000 -1.210000
v 5.312098 13.331341 -1.310000
v 4.680508 13.331341 -1.310000
v 4.680508 13.650000 -1.310000
v 5.312098 13.650000 -1.310000
v 5.312098 13.331341 -1.210000
v 5.312098 13.331341 -1.310000
v 5.312098 13.650000 -1.310000
v 5.312098 13.650000 -1.210000
v 4.680508 13.331341 -1.310000
v 4.680508 13.331341 -1.210000
v 4.680508 13.650000 -1.210000
v 4.680508 13.650000 -1.310000
v 4.680508 13.650000 -1.210000
v 5.312098 13.650000 -1.210000
v 5.312098 13.650000 -1.310000
v 4.680508 13.650000 -1.310000
v 4.680508 13.331341 -1.310000
v 5.312098 13.331341 -1.310000
v 5.312098 13.331341 -1.210000
v 4.680508 13.331341 -1.210000
v -5.450000 13.226122 1.310000
v -5.083398 13.226122 1.310000
v -5.083398 13.650000 1.310000
v -5.450000 13.650000 1.310000
v -5.083398 13.226122 1.210000
v -5.450000 13.226122 1.210000
v -5.450000 13.650000 1.210000
v -5.083398 13.650000 1.210000
v -5.083398 13.226122 1.310000
v -5.083398 13.226122 1.210000
v -5.083398 13.650000 1.210000
v -5.083398 13.650000 1.310000
v -5.450000 13.226122 1.210000
v -5.450000 13.226122 1.310000
v -5.450000 13.650000 1.310000
v -5.450000 13.650000 1.210000
v -5.450000 13.650000 1.310000
v -5.083398 13.650000 1.310000
v -5.083398 13.650000 1.210000
v -5.450000 13.650000 1.210000
v -5.450000 13.226122 1.210000
v -5.083398 13.226122 1.210000
v -5.083398 13.226122 1.310000
v -5.450000 13.226122 1.310000
v -4.253031 13.130860 1.310000
v -3.718193 13.130860 1.310000
v -3.718193 13.650000 1.310000
v -4.253031 13.650000 1.310000
v -3.718193 13.130860 1.210000
v -4.253031 13.130860 1.210000
v -4.253031 13.650000 1.210000
v -3.718193 13.650000 1.210000
v -3.718193 13.130860 1.310000
v -3.718193 13.130860 1.210000
v -3.718193 13.650000 1.210000
v -3.718193 13.650000 1.310000
v -4.253031 13.130860 1.210000
v -4.253031 13.130860 1.310000
v -4.253031 13.650000 1.310000
v -4.253031 13.650000 1.210000
v -4.253031 13.650000 1.310000
v -3.718193 13.650000 1.310000
v -3.718193 13.650000 1.210000
v -4.253031 13.650000 1.210000
v -4.253031 13.130860 1.210000
v -3.718193 13.130860 1.210000
v -3.718193 13.130860 1.310000
v -4.253031 13.130860 1.310000
v -2.881128 11.658123 1.310000
v -2.260956 11.658123 1.310000
v -2.260956 13.650000 1.310000
v -2.881128 13.650000 1.310000
v -2.260956 11.658123 1.210000
v -2.881128 11.658123 1.210000
v -2.881128 13.650000 1.210000
v -2.260956 13.650000 1.210000
v -2.260956 11.658123 1.310000
v -2.260956 11.658123 1.210000
v -2.260956 13.650000 1.210000
v -2.260956 13.650000 1.310000
v -2.881128 11.658123 1.210000
v -2.881128 11.658123 1.310000
v -2.881128 13.650000 1.310000
v -2.881128 13.650000 1.210000
v -2.881128 13.650000 1.310000
v -2.260956 13.650000 1.310000
v -2.260956 13.650000 1.210000
v -2.881128 13.650000 1.210000
v -2.881128 11.658123 1.210000
v -2.260956 11.658123 1.210000
v -2.260956 11.658123 1.310000
v -2.881128 11.658123 1.310000
v -0.946467 13.166383 1.310000
v -0.325790 13.166383 1.310000
v -0.325790 13.650000 1.310000
v -0.946467 13.650000 1.310000
v -0.325790 13.166383 1.210000
v -0.946467 13.166383 1.210000
v -0.946467 13.650000 1.210000
v -0.325790 13.650000 1.210000
v -0.325790 13.166383 1.310000
v -0.325790 13.166383 1.210000
v -0.325790 13.650000 1.210000
v -0.325790 13.650000 1.310000
v -0.946467 13.166383 1.210000
v -0.946467 13.166383 1.310000
v -0.946467 13.650000 1.310000
v -0.946467 13.650000 1.210000
v -0.946467 13.650000 1.310000
v -0.325790 13.650000 1.310000
v -0.325790 13.650000 1.210000
v -0.946467 13.650000 1.210000
v -0.946467 13.166383 1.210000
v -0.325790 13.166383 1.210000
v -0.325790 13.166383 1.310000
v -0.946467 13.166383 1.310000
v -0.032899 12.893782 1.310000
v 0.349610 12.893782 1.310000
v 0.349610 13.650000 1.310000
v -0.032899 13.650000 1.310000
v 0.349610 12.893782 1.210000
v -0.032899 12.893782 1.210000
v -0.032899 13.650000 1.210000
v 0.349610 13.650000 1.210000
v 0.349610 12.893782 1.310000
v 0.349610 12.893782 1.210000
v 0.349610 13.650000 1.210000
v 0.349610 13.650000 1.310000
v -0.032899 12.893782 1.210000
v -0.032899 12.893782 1.310000
v -0.032899 13.650000 1.310000
v -0.032899 13.650000 1.210000
v -0.032899 13.650000 1.310000
v 0.349610 13.650000 1.310000
v 0.349610 13.650000 1.210000
v -0.032899 13.650000 1.210000
v -0.032899 12.893782 1.210000
v 0.349610 12.893782 1.210000
v 0.349610 12.893782 1.310000
v -0.032899 12.893782 1.310000
v 0.673039 11.948156 1.310000
v 1.326556 11.948156 1.310000
v 1.326556 13.650000 1.310000
v 0.673039 13.650000 1.310000
v 1.326556 11.948156 1.210000
v 0.673039 11.948156 1.210000
v 0.673039 13.650000 1.210000
v 1.326556 13.650000 1.210000
v 1.326556 11.948156 1.310000
v 1.326556 11.948156 1.210000
v 1.326556 13.650000 1.210000
v 1.326556 13.650000 1.310000
v 0.673039 11.948156 1.210000
v 0.673039 11.948156 1.310000
v 0.673039 13.650000 1.310000
v 0.673039 13.650000 1.210000
v 0.673039 13.650000 1.310000
v 1.326556 13.650000 1.310000
v 1.326556 13.650000 1.210000
v 0.673039 13.650000 1.210000
v 0.673039 11.948156 1.210000
v 1.326556 11.948156 1.210000
v 1.326556 11.948156 1.310000
v 0.673039 11.948156 1.310000
v 2.379807 12.463832 1.310000
v 2.770840 12.463832 1.310000
v 2.770840 13.650000 1.310000
v 2.379807 13.650000 1.310000
v 2.770840 12.463832 1.210000
v 2.379807 12.463832 1.210000
v 2.379807 13.650000 1.210000
v 2.770840 13.650000 1.210000
v 2.770840 12.463832 1.310000
v 2.770840 12.463832 1.210000
v 2.770840 13.650000 1.210000
v 2.770840 13.650000 1.310000
v 2.379807 12.463832 1.210000
v 2.379807 12.463832 1.310000
v 2.379807 13.650000 1.310000
v 2.379807 13.650000 1.210000
v 2.379807 13.650000 1.310000
v 2.770840 13.650000 1.310000
v 2.770840 13.650000 1.210000
v 2.379807 13.650000 1.210000
v 2.379807 12.463832 1.210000
v 2.770840 12.463832 1.210000
v 2.770840 12.463832 1.310000
v 2.379807 12.463832 1.310000
v 3.090599 12.792348 1.310000
v 3.530432 12.792348 1.310000
v 3.530432 13.650000 1.310000
v 3.090599 13.650000 1.310000
v 3.530432 12.792348 1.210000
v 3.090599 12.792348 1.210000
v 3.090599 13.650000 1.210000
v 3.530432 13.650000 1.210000
v 3.530432 12.792348 1.310000
v 3.530432 12.792348 1.210000
v 3.530432 13.650000 1.210000
v 3.530432 13.650000 1.310000
v 3.090599 12.792348 1.210000
v 3.090599 12.792348 1.310000
v 3.090599 13.650000 1.310000
v 3.090599 13.650000 1.210000
v 3.090599 13.650000 1.310000
v 3.530432 13.650000 1.310000
v 3.530432 13.650000 1.210000
v 3.090599 13.650000 1.210000
v 3.090599 12.792348 1.210000
v 3.530432 12.792348 1.210000
v 3.530432 12.792348 1.310000
v 3.090599 12.792348 1.310000
v 4.533778 13.050329 1.310000
v 5.097045 13.050329 1.310000
v 5.097045 13.650000 1.310000
v 4.533778 13.650000 1.310000
v 5.097045 13.050329 1.210000
v 4.533778 13.050329 1.210000
v 4.533778 13.650000 1.210000
v 5.097045 13.650000 1.210000
v 5.097045 13.050329 1.310000
v 5.097045 13.050329 1.210000
v 5.097045 13.650000 1.210000
v 5.097045 13.650000 1.310000
v 4.533778 13.050329 1.210000
v 4.533778 13.050329 1.310000
v 4.533778 13.650000 1.310000
v 4.533778 13.650000 1.210000
v 4.533778 13.650000 1.310000
v 5.097045 13.650000 1.310000
v 5.097045 13.650000 1.210000
v 4.533778 13.650000 1.210000
v 4.533778 13.050329 1.210000
v 5.097045 13.050329 1.210000
v 5.097045 13.050329 1.310000
v 4.533778 13.050329 1.310000
v 5.289955 12.652765 1.310000
v 5.778811 12.652765 1.310000
v 5.778811 13.650000 1.310000
v 5.289955 13.650000 1.310000
v 5.778811 12.652765 1.210000
v 5.289955 12.652765 1.210000
v 5.289955 13.650000 1.210000
v 5.778811 13.650000 1.210000
v 5.778811 12.652765 1.310000
v 5.778811 12.652765 1.210000
v 5.778811 13.650000 1.210000
v 5.778811 13.650000 1.310000
v 5.289955 12.652765 1.210000
v 5.289955 12.652765 1.310000
v 5.289955 13.650000 1.310000
v 5.289955 13.650000 1.210000
v 5.289955 13.650000 1.310000
v 5.778811 13.650000 1.310000
v 5.778811 13.650000 1.210000
v 5.289955 13.650000 1.210000
v 5.289955 12.652765 1.210000
v 5.778811 12.652765 1.210000
v 5.778811 12.652765 1.310000
v 5.289955 12.652765 1.310000
v -5.630000 12.200000 -1.350000
v -5.070000 12.200000 -1.350000
v -5.070000 13.300000 -1.350000
v -5.630000 13.300000 -1.350000
v -5.070000 12.200000 -1.450000
v -5.630000 12.200000 -1.450000
v -5.630000 13.300000 -1.450000
v -5.070000 13.300000 -1.450000
v -5.070000 12.200000 -1.350000
v -5.070000 12.200000 -1.450000
v -5.070000 13.300000 -1.450000
v -5.070000 13.300000 -1.350000
v -5.630000 12.200000 -1.450000
v -5.630000 12.200000 -1.350000
v -5.630000 13.300000 -1.350000
v -5.630000 13.300000 -1.450000
v -5.630000 13.300000 -1.350000
v -5.070000 13.300000 -1.350000
v -5.070000 13.300000 -1.450000
v -5.630000 13.300000 -1.450000
v -5.630000 12.200000 -1.450000
v -5.070000 12.200000 -1.450000
v -5.070000 12.200000 -1.350000
v -5.630000 12.200000 -1.350000
v -5.630000 12.200000 1.450000
v -5.070000 12.200000 1.450000
v -5.070000 13.300000 1.450000
v -5.630000 13.300000 1.450000
v -5.070000 12.200000 1.350000
v -5.630000 12.200000 1.350000
v -5.630000 13.300000 1.350000
v -5.070000 13.300000 1.350000
v -5.070000 12.200000 1.450000
v -5.070000 12.200000 1.350000
v -5.070000 13.300000 1.350000
v -5.070000 13.300000 1.450000
v -5.630000 12.200000 1.350000
v -5.630000 12.200000 1.450000
v -5.630000 13.300000 1.450000
v -5.630000 13.300000 1.350000
v -5.630000 13.300000 1.450000
v -5.070000 13.300000 1.450000
v -5.070000 13.300000 1.350000
v -5.630000 13.300000 1.350000
v -5.630000 12.200000 1.350000
v -5.070000 12.200000 1.350000
v -5.070000 12.200000 1.450000
v -5.630000 12.200000 1.450000
v 5.070000 12.200000 -1.350000
v 5.630000 12.200000 -1.350000
v 5.630000 13.300000 -1.350000
v 5.070000 13.300000 -1.350000
v 5.630000 12.200000 -1.450000
v 5.070000 12.200000 -1.450000
v 5.070000 13.300000 -1.450000
v 5.630000 13.300000 -1.450000
v 5.630000 12.200000 -1.350000
v 5.630000 12.200000 -1.450000
v 5.630000 13.300000 -1.450000
v 5.630000 13.300000 -1.350000
v 5.070000 12.200000 -1.450000
v 5.070000 12.200000 -1.350000
v 5.070000 13.300000 -1.350000
v 5.070000 13.300000 -1.450000
v 5.070000 13.300000 -1.350000
v 5.630000 13.300000 -1.350000
v 5.630000 13.300000 -1.450000
v 5.070000 13.300000 -1.450000
v 5.070000 12.200000 -1.450000
v 5.630000 12.200000 -1.450000
v 5.630000 12.200000 -1.350000
v 5.070000 12.200000 -1.350000
v 5.070000 12.200000 1.450000
v 5.630000 12.200000 1.450000
v 5.630000 13.300000 1.450000
v 5.070000 13.300000 1.450000
v 5.630000 12.200000 1.350000
v 5.070000 12.200000 1.350000
v 5.070000 13.300000 1.350000
v 5.630000 13.300000 1.350000
v 5.630000 12.200000 1.450000
v 5.630000 12.200000 1.350000
v 5.630000 13.300000 1.350000
v 5.630000 13.300000 1.450000
v 5.070000 12.200000 1.350000
v 5.070000 12.200000 1.450000
v 5.070000 13.300000 1.450000
v 5.070000 13.300000 1.350000
v 5.070000 13.300000 1.450000
v 5.630000 13.300000 1.450000
v 5.630000 13.300000 1.350000
v 5.070000 13.300000 1.350000
v 5.070000 12.200000 1.350000
v 5.630000 12.200000 1.350000
v 5.630000 12.200000 1.450000
v 5.070000 12.200000 1.450000
vt 0.000000 0.000000
vt 4.615385 0.000000
vt 4.615385 5.384615
vt 0.000000 5.384615
vt 0.000000 0.000000
vt 4.615385 0.000000
vt 4.615385 5.384615
vt 0.000000 5.384615
vt 0.000000 0.000000
vt 0.923077 0.000000
vt 0.923077 5.384615
vt 0.000000 5.384615
vt 0.000000 0.000000
vt 0.923077 0.000000
vt 0.923077 5.384615
vt 0.000000 5.384615
vt 0.000000 0.000000
vt 4.615385 0.000000
vt 4.615385 0.923077
vt 0.000000 0.923077
vt 0.000000 0.000000
vt 4.615385 0.000000
vt 4.615385 0.923077
vt 0.000000 0.923077
vt 0.000000 0.000000
vt 0.236364 0.000000
vt 0.236364 6.522727
vt 0.000000 6.522727
vt 0.000000 0.000000
vt 0.236364 0.000000
vt 0.236364 6.522727
vt 0.000000 6.522727
vt 0.000000 0.000000
vt 1.245455 0.000000
vt 1.245455 6.522727
vt 0.000000 6.522727
vt 0.000000 0.000000
vt 1.245455 0.000000
vt 1.245455 6.522727
vt 0.000000 6.522727
vt 0.000000 0.000000
vt 0.236364 0.000000
vt 0.236364 1.245455
vt 0.000000 1.245455
vt 0.000000 0.000000
vt 0.236364 0.000000
vt 0.236364 1.245455
vt 0.000000 1.245455
vt 0.000000 0.000000
vt 0.236364 0.000000
vt 0.236364 6.522727
vt 0.000000 6.522727
vt 0.000000 0.000000
vt 0.236364 0.000000
vt 0.236364 6.522727
vt 0.000000 6.522727
vt 0.000000 0.000000
vt 1.245455 0.000000
vt 1.245455 6.522727
vt 0.000000 6.522727
vt 0.000000 0.000000
vt 1.245455 0.000000
vt 1.245455 6.522727
vt 0.000000 6.522727
vt 0.000000 0.000000
vt 0.236364 0.000000
vt 0.236364 1.245455
vt 0.000000 1.245455
vt 0.000000 0.000000
vt 0.236364 0.000000
vt 0.236364 1.245455
vt 0.000000 1.245455
vt 0.000000 0.000000
vt 0.236364 0.000000
vt 0.236364 6.522727
vt 0.000000 6.522727
vt 0.000000 0.000000
vt 0.236364 0.000000
vt 0.236364 6.522727
vt 0.000000 6.522727
vt 0.000000 0.000000
vt 1.245455 0.000000
vt 1.245455 6.522727
vt 0.000000 6.522727
vt 0.000000 0.000000
vt 1.245455 0.000000
vt 1.245455 6.522727
vt 0.000000 6.522727
vt 0.000000 0.000000
vt 0.236364 0.000000
vt 0.236364 1.245455
vt 0.000000 1.245455
vt 0.000000 0.000000
vt 0.236364 0.000000
vt 0.236364 1.245455
vt 0.000000 1.245455
vt 0.000000 0.000000
vt 0.236364 0.000000
vt 0.236364 6.522727
vt 0.000000 6.522727
vt 0.000000 0.000000
vt 0.236364 0.000000
vt 0.236364 6.522727
vt 0.000000 6.522727
vt 0.000000 0.000000
vt 1.245455 0.000000
vt 1.245455 6.522727
vt 0.000000 6.522727
vt 0.000000 0.000000
vt 1.245455 0.000000
vt 1.245455 6.522727
vt 0.000000 6.522727
vt 0.000000 0.000000
vt 0.236364 0.000000
vt 0.236364 1.245455
vt 0.000000 1.245455
vt 0.000000 0.000000
vt 0.236364 0.000000
vt 0.236364 1.245455
vt 0.000000 1.245455
vt 0.000000 0.000000
vt 5.704545 0.000000
vt 5.704545 0.318182
vt 0.000000 0.318182
vt 0.000000 0.000000
vt 5.704545 0.000000
vt 5.704545 0.318182
vt 0.000000 0.318182
vt 0.000000 0.000000
vt 1.295455 0.000000
vt 1.295455 0.318182
vt 0.000000 0.318182
vt 0.000000 0.000000
vt 1.295455 0.000000
vt 1.295455 0.318182
vt 0.000000 0.318182
vt 0.000000 0.000000
vt 5.704545 0.000000
vt 5.704545 1.295455
vt 0.000000 1.295455
vt 0.000000 0.000000
vt 5.704545 0.000000
vt 5.704545 1.295455
vt 0.000000 1.295455
vt 0.000000 0.000000
vt 5.704545 0.000000
vt 5.704545 0.295455
vt 0.000000 0.295455
vt 0.000000 0.000000
vt 5.704545 0.000000
vt 5.704545 0.295455
vt 0.000000 0.295455
vt 0.000000 0.000000
vt 1.281818 0.000000
vt 1.281818 0.295455
vt 0.000000 0.295455
vt 0.000000 0.000000
vt 1.281818 0.000000
vt 1.281818 0.295455
vt 0.000000 0.295455
vt 0.000000 0.000000
vt 5.704545 0.000000
vt 5.704545 1.281818
vt 0.000000 1.281818
vt 0.000000 0.000000
vt 5.704545 0.000000
vt 5.704545 1.281818
vt 0.000000 1.281818
vt 0.000000 0.000000
vt 0.045000 0.000000
vt 0.045000 12.850000
vt 0.000000 12.850000
vt 0.000000 0.000000
vt 0.045000 0.000000
vt 0.045000 12.850000
vt 0.000000 12.850000
vt 0.000000 0.000000
vt 0.025000 0.000000
vt 0.025000 12.850000
vt 0.000000 12.850000
vt 0.000000 0.000000
vt 0.025000 0.000000
vt 0.025000 12.850000
vt 0.000000 12.850000
vt 0.000000 0.000000
vt 0.045000 0.000000
vt 0.045000 0.025000
vt 0.000000 0.025000
vt 0.000000 0.000000
vt 0.045000 0.000000
vt 0.045000 0.025000
vt 0.000000 0.025000
vt 0.000000 0.000000
vt 0.045000 0.000000
vt 0.045000 12.850000
vt 0.000000 12.850000
vt 0.000000 0.000000
vt 0.045000 0.000000
vt 0.045000 12.850000
vt 0.000000 12.850000
vt 0.000000 0.000000
vt 0.025000 0.000000
vt 0.025000 12.850000
vt 0.000000 12.850000
vt 0.000000 0.000000
vt 0.025000 0.000000
vt 0.025000 12.850000
vt 0.000000 12.850000
vt 0.000000 0.000000
vt 0.045000 0.000000
vt 0.045000 0.025000
vt 0.000000 0.025000
vt 0.000000 0.000000
vt 0.045000 0.000000
vt 0.045000 0.025000
vt 0.000000 0.025000
vt 0.000000 0.000000
vt 0.045000 0.000000
vt 0.045000 12.850000
vt 0.000000 12.850000
vt 0.000000 0.000000
vt 0.045000 0.000000
vt 0.045000 12.850000
vt 0.000000 12.850000
vt 0.000000 0.000000
vt 0.025000 0.000000
vt 0.025000 12.850000
vt 0.000000 12.850000
vt 0.000000 0.000000
vt 0.025000 0.000000
vt 0.025000 12.850000
vt 0.000000 12.850000
vt 0.000000 0.000000
vt 0.045000 0.000000
vt 0.045000 0.025000
vt 0.000000 0.025000
vt 0.000000 0.000000
vt 0.045000 0.000000
vt 0.045000 0.025000
vt 0.000000 0.025000
vt 0.000000 0.000000
vt 11.250000 0.000000
vt 11.250000 0.045000
vt 0.000000 0.045000
vt 0.000000 0.000000
vt 11.250000 0.000000
vt 11.250000 0.045000
vt 0.000000 0.045000
vt 0.000000 0.000000
vt 0.025000 0.000000
vt 0.025000 0.045000
vt 0.000000 0.045000
vt 0.000000 0.000000
vt 0.025000 0.000000
vt 0.025000 0.045000
vt 0.000000 0.045000
vt 0.000000 0.000000
vt 11.250000 0.000000
vt 11.250000 0.025000
vt 0.000000 0.025000
vt 0.000000 0.000000
vt 11.250000 0.000000
vt 11.250000 0.025000
vt 0.000000 0.025000
vt 0.000000 0.000000
vt 11.250000 0.000000
vt 11.250000 0.045000
vt 0.000000 0.045000
vt 0.000000 0.000000
vt 11.250000 0.000000
vt 11.250000 0.045000
vt 0.000000 0.045000
vt 0.000000 0.000000
vt 0.025000 0.000000
vt 0.025000 0.045000
vt 0.000000 0.045000
vt 0.000000 0.000000
vt 0.025000 0.000000
vt 0.025000 0.045000
vt 0.000000 0.045000
vt 0.000000 0.000000
vt 11.250000 0.000000
vt 11.250000 0.025000
vt 0.000000 0.025000
vt 0.000000 0.000000
vt 11.250000 0.000000
vt 11.250000 0.025000
vt 0.000000 0.025000
vt 0.000000 0.000000
vt 0.045000 0.000000
vt 0.045000 12.850000
vt 0.000000 12.850000
vt 0.000000 0.000000
vt 0.045000 0.000000
vt 0.045000 12.850000
vt 0.000000 12.850000
vt 0.000000 0.000000
vt 0.025000 0.000000
vt 0.025000 12.850000
vt 0.000000 12.850000
vt 0.000000 0.000000
vt 0.025000 0.000000
vt 0.025000 12.850000
vt 0.000000 12.850000
vt 0.000000 0.000000
vt 0.045000 0.000000
vt 0.045000 0.025000
vt 0.000000 0.025000
vt 0.000000 0.000000
vt 0.045000 0.000000
vt 0.045000 0.025000
vt 0.000000 0.025000
vt 0.000000 0.000000
vt 0.045000 0.000000
vt 0.045000 12.850000
vt 0.000000 12.850000
vt 0.000000 0.000000
vt 0.045000 0.000000
vt 0.045000 12.850000
vt 0.000000 12.850000
vt 0.000000 0.000000
vt 0.025000 0.000000
vt 0.025000 12.850000
vt 0.000000 12.850000
vt 0.000000 0.000000
vt 0.025000 0.000000
vt 0.025000 12.850000
vt 0.000000 12.850000
vt 0.000000 0.000000
vt 0.045000 0.000000
vt 0.045000 0.025000
vt 0.000000 0.025000
vt 0.000000 0.000000
vt 0.045000 0.000000
vt 0.045000 0.025000
vt 0.000000 0.025000
vt 0.000000 0.000000
vt 0.045000 0.000000
vt 0.045000 12.850000
vt 0.000000 12.850000
vt 0.000000 0.000000
vt 0.045000 0.000000
vt 0.045000 12.850000
vt 0.000000 12.850000
vt 0.000000 0.000000
vt 0.025000 0.000000
vt 0.025000 12.850000
vt 0.000000 12.850000
vt 0.000000 0.000000
vt 0.025000 0.000000
vt 0.025000 12.850000
vt 0.000000 12.850000
vt 0.000000 0.000000
vt 0.045000 0.000000
vt 0.045000 0.025000
vt 0.000000 0.025000
vt 0.000000 0.000000
vt 0.045000 0.000000
vt 0.045000 0.025000
vt 0.000000 0.025000
vt 0.000000 0.000000
vt 11.250000 0.000000
vt 11.250000 0.045000
vt 0.000000 0.045000
vt 0.000000 0.000000
vt 11.250000 0.000000
vt 11.250000 0.045000
vt 0.000000 0.045000
vt 0.000000 0.000000
vt 0.025000 0.000000
vt 0.025000 0.045000
vt 0.000000 0.045000
vt 0.000000 0.000000
vt 0.025000 0.000000
vt 0.025000 0.045000
vt 0.000000 0.045000
vt 0.000000 0.000000
vt 11.250000 0.000000
vt 11.250000 0.025000
vt 0.000000 0.025000
vt 0.000000 0.000000
vt 11.250000 0.000000
vt 11.250000 0.025000
vt 0.000000 0.025000
vt 0.000000 0.000000
vt 11.250000 0.000000
vt 11.250000 0.045000
vt 0.000000 0.045000
vt 0.000000 0.000000
vt 11.250000 0.000000
vt 11.250000 0.045000
vt 0.000000 0.045000
vt 0.000000 0.000000
vt 0.025000 0.000000
vt 0.025000 0.045000
vt 0.000000 0.045000
vt 0.000000 0.000000
vt 0.025000 0.000000
vt 0.025000 0.045000
vt 0.000000 0.045000
vt 0.000000 0.000000
vt 11.250000 0.000000
vt 11.250000 0.025000
vt 0.000000 0.025000
vt 0.000000 0.000000
vt 11.250000 0.000000
vt 11.250000 0.025000
vt 0.000000 0.025000
vt 0.000000 0.000000
vt 0.575000 0.000000
vt 0.575000 0.750000
vt 0.000000 0.750000
vt 0.000000 0.000000
vt 0.575000 0.000000
vt 0.575000 0.750000
vt 0.000000 0.750000
vt 0.000000 0.000000
vt 0.050000 0.000000
vt 0.050000 0.750000
vt 0.000000 0.750000
vt 0.000000 0.000000
vt 0.050000 0.000000
vt 0.050000 0.750000
vt 0.000000 0.750000
vt 0.000000 0.000000
vt 0.575000 0.000000
vt 0.575000 0.050000
vt 0.000000 0.050000
vt 0.000000 0.000000
vt 0.575000 0.000000
vt 0.575000 0.050000
vt 0.000000 0.050000
vt 0.000000 0.000000
vt 0.575000 0.000000
vt 0.575000 0.750000
vt 0.000000 0.750000
vt 0.000000 0.000000
vt 0.575000 0.000000
vt 0.575000 0.750000
vt 0.000000 0.750000
vt 0.000000 0.000000
vt 0.050000 0.000000
vt 0.050000 0.750000
vt 0.000000 0.750000
vt 0.000000 0.000000
vt 0.050000 0.000000
vt 0.050000 0.750000
vt 0.000000 0.750000
vt 0.000000 0.000000
vt 0.575000 0.000000
vt 0.575000 0.050000
vt 0.000000 0.050000
vt 0.000000 0.000000
vt 0.575000 0.000000
vt 0.575000 0.050000
vt 0.000000 0.050000
vt 0.000000 0.000000
vt 0.675000 0.000000
vt 0.675000 0.825000
vt 0.000000 0.825000
vt 0.000000 0.000000
vt 0.675000 0.000000
vt 0.675000 0.825000
vt 0.000000 0.825000
vt 0.000000 0.000000
vt 0.050000 0.000000
vt 0.050000 0.825000
vt 0.000000 0.825000
vt 0.000000 0.000000
vt 0.050000 0.000000
vt 0.050000 0.825000
vt 0.000000 0.825000
vt 0.000000 0.000000
vt 0.675000 0.000000
vt 0.675000 0.050000
vt 0.000000 0.050000
vt 0.000000 0.000000
vt 0.675000 0.000000
vt 0.675000 0.050000
vt 0.000000 0.050000
vt 0.000000 0.000000
vt 0.675000 0.000000
vt 0.675000 0.825000
vt 0.000000 0.825000
vt 0.000000 0.000000
vt 0.675000 0.000000
vt 0.675000 0.825000
vt 0.000000 0.825000
vt 0.000000 0.000000
vt 0.050000 0.000000
vt 0.050000 0.825000
vt 0.000000 0.825000
vt 0.000000 0.000000
vt 0.050000 0.000000
vt 0.050000 0.825000
vt 0.000000 0.825000
vt 0.000000 0.000000
vt 0.675000 0.000000
vt 0.675000 0.050000
vt 0.000000 0.050000
vt 0.000000 0.000000
vt 0.675000 0.000000
vt 0.675000 0.050000
vt 0.000000 0.050000
vt 0.000000 0.000000
vt 0.775000 0.000000
vt 0.775000 0.475000
vt 0.000000 0.475000
vt 0.000000 0.000000
vt 0.775000 0.000000
vt 0.775000 0.475000
vt 0.000000 0.475000
vt 0.000000 0.000000
vt 0.050000 0.000000
vt 0.050000 0.475000
vt 0.000000 0.475000
vt 0.000000 0.000000
vt 0.050000 0.000000
vt 0.050000 0.475000
vt 0.000000 0.475000
vt 0.000000 0.000000
vt 0.775000 0.000000
vt 0.775000 0.050000
vt 0.000000 0.050000
vt 0.000000 0.000000
vt 0.775000 0.000000
vt 0.775000 0.050000
vt 0.000000 0.050000
vt 0.000000 0.000000
vt 0.775000 0.000000
vt 0.775000 0.475000
vt 0.000000 0.475000
vt 0.000000 0.000000
vt 0.775000 0.000000
vt 0.775000 0.475000
vt 0.000000 0.475000
vt 0.000000 0.000000
vt 0.050000 0.000000
vt 0.050000 0.475000
vt 0.000000 0.475000
vt 0.000000 0.000000
vt 0.050000 0.000000
vt 0.050000 0.475000
vt 0.000000 0.475000
vt 0.000000 0.000000
vt 0.775000 0.000000
vt 0.775000 0.050000
vt 0.000000 0.050000
vt 0.000000 0.000000
vt 0.775000 0.000000
vt 0.775000 0.050000
vt 0.000000 0.050000
vt 0.000000 0.000000
vt 9.333333 0.000000
vt 9.333333 0.150000
vt 0.000000 0.150000
vt 0.000000 0.000000
vt 9.333333 0.000000
vt 9.333333 0.150000
vt 0.000000 0.150000
vt 0.000000 0.000000
vt 2.208333 0.000000
vt 2.208333 0.150000
vt 0.000000 0.150000
vt 0.000000 0.000000
vt 2.208333 0.000000
vt 2.208333 0.150000
vt 0.000000 0.150000
vt 0.000000 0.000000
vt 9.333333 0.000000
vt 9.333333 2.208333
vt 0.000000 2.208333
vt 0.000000 0.000000
vt 9.333333 0.000000
vt 9.333333 2.208333
vt 0.000000 2.208333
vt 0.000000 0.000000
vt 0.631478 0.000000
vt 0.631478 1.356521
vt 0.000000 1.356521
vt 0.000000 0.000000
vt 0.631478 0.000000
vt 0.631478 1.356521
vt 0.000000 1.356521
vt 0.000000 0.000000
vt 0.100000 0.000000
vt 0.100000 1.356521
vt 0.000000 1.356521
vt 0.000000 0.000000
vt 0.100000 0.000000
vt 0.100000 1.356521
vt 0.000000 1.356521
vt 0.000000 0.000000
vt 0.631478 0.000000
vt 0.631478 0.100000
vt 0.000000 0.100000
vt 0.000000 0.000000
vt 0.631478 0.000000
vt 0.631478 0.100000
vt 0.000000 0.100000
vt 0.000000 0.000000
vt 0.778536 0.000000
vt 0.778536 0.540785
vt 0.000000 0.540785
vt 0.000000 0.000000
vt 0.778536 0.000000
vt 0.778536 0.540785
vt 0.000000 0.540785
vt 0.000000 0.000000
vt 0.100000 0.000000
vt 0.100000 0.540785
vt 0.000000 0.540785
vt 0.000000 0.000000
vt 0.100000 0.000000
vt 0.100000 0.540785
vt 0.000000 0.540785
vt 0.000000 0.000000
vt 0.778536 0.000000
vt 0.778536 0.100000
vt 0.000000 0.100000
vt 0.000000 0.000000
vt 0.778536 0.000000
vt 0.778536 0.100000
vt 0.000000 0.100000
vt 0.000000 0.000000
vt 0.470589 0.000000
vt 0.470589 0.501457
vt 0.000000 0.501457
vt 0.000000 0.000000
vt 0.470589 0.000000
vt 0.470589 0.501457
vt 0.000000 0.501457
vt 0.000000 0.000000
vt 0.100000 0.000000
vt 0.100000 0.501457
vt 0.000000 0.501457
vt 0.000000 0.000000
vt 0.100000 0.000000
vt 0.100000 0.501457
vt 0.000000 0.501457
vt 0.000000 0.000000
vt 0.470589 0.000000
vt 0.470589 0.100000
vt 0.000000 0.100000
vt 0.000000 0.000000
vt 0.470589 0.000000
vt 0.470589 0.100000
vt 0.000000 0.100000
vt 0.000000 0.000000
vt 0.498738 0.000000
vt 0.498738 1.529806
vt 0.000000 1.529806
vt 0.000000 0.000000
vt 0.498738 0.000000
vt 0.498738 1.529806
vt 0.000000 1.529806
vt 0.000000 0.000000
vt 0.100000 0.000000
vt 0.100000 1.529806
vt 0.000000 1.529806
vt 0.000000 0.000000
vt 0.100000 0.000000
vt 0.100000 1.529806
vt 0.000000 1.529806
vt 0.000000 0.000000
vt 0.498738 0.000000
vt 0.498738 0.100000
vt 0.000000 0.100000
vt 0.000000 0.000000
vt 0.498738 0.000000
vt 0.498738 0.100000
vt 0.000000 0.100000
vt 0.000000 0.000000
vt 0.654878 0.000000
vt 0.654878 1.210825
vt 0.000000 1.210825
vt 0.000000 0.000000
vt 0.654878 0.000000
vt 0.654878 1.210825
vt 0.000000 1.210825
vt 0.000000 0.000000
vt 0.100000 0.000000
vt 0.100000 1.210825
vt 0.000000 1.210825
vt 0.000000 0.000000
vt 0.100000 0.000000
vt 0.100000 1.210825
vt 0.000000 1.210825
vt 0.000000 0.000000
vt 0.654878 0.000000
vt 0.654878 0.100000
vt 0.000000 0.100000
vt 0.000000 0.000000
vt 0.654878 0.000000
vt 0.654878 0.100000
vt 0.000000 0.100000
vt 0.000000 0.000000
vt 0.740851 0.000000
vt 0.740851 1.673220
vt 0.000000 1.673220
vt 0.000000 0.000000
vt 0.740851 0.000000
vt 0.740851 1.673220
vt 0.000000 1.673220
vt 0.000000 0.000000
vt 0.100000 0.000000
vt 0.100000 1.673220
vt 0.000000 1.673220
vt 0.000000 0.000000
vt 0.100000 0.000000
vt 0.100000 1.673220
vt 0.000000 1.673220
vt 0.000000 0.000000
vt 0.740851 0.000000
vt 0.740851 0.100000
vt 0.000000 0.100000
vt 0.000000 0.000000
vt 0.740851 0.000000
vt 0.740851 0.100000
vt 0.000000 0.100000
vt 0.000000 0.000000
vt 0.570816 0.000000
vt 0.570816 1.525255
vt 0.000000 1.525255
vt 0.000000 0.000000
vt 0.570816 0.000000
vt 0.570816 1.525255
vt 0.000000 1.525255
vt 0.000000 0.000000
vt 0.100000 0.000000
vt 0.100000 1.525255
vt 0.000000 1.525255
vt 0.000000 0.000000
vt 0.100000 0.000000
vt 0.100000 1.525255
vt 0.000000 1.525255
vt 0.000000 0.000000
vt 0.570816 0.000000
vt 0.570816 0.100000
vt 0.000000 0.100000
vt 0.000000 0.000000
vt 0.570816 0.000000
vt 0.570816 0.100000
vt 0.000000 0.100000
vt 0.000000 0.000000
vt 0.540687 0.000000
vt 0.540687 0.483770
vt 0.000000 0.483770
vt 0.000000 0.000000
vt 0.540687 0.000000
vt 0.540687 0.483770
vt 0.000000 0.483770
vt 0.000000 0.000000
vt 0.100000 0.000000
vt 0.100000 0.483770
vt 0.000000 0.483770
vt 0.000000 0.000000
vt 0.100000 0.000000
vt 0.100000 0.483770
vt 0.000000 0.483770
vt 0.000000 0.000000
vt 0.540687 0.000000
vt 0.540687 0.100000
vt 0.000000 0.100000
vt 0.000000 0.000000
vt 0.540687 0.000000
vt 0.540687 0.100000
vt 0.000000 0.100000
vt 0.000000 0.000000
vt 0.732286 0.000000
vt 0.732286 1.817106
vt 0.000000 1.817106
vt 0.000000 0.000000
vt 0.732286 0.000000
vt 0.732286 1.817106
vt 0.000000 1.817106
vt 0.000000 0.000000
vt 0.100000 0.000000
vt 0.100000 1.817106
vt 0.000000 1.817106
vt 0.000000 0.000000
vt 0.100000 0.000000
vt 0.100000 1.817106
vt 0.000000 1.817106
vt 0.000000 0.000000
vt 0.732286 0.000000
vt 0.732286 0.100000
vt 0.000000 0.100000
vt 0.000000 0.000000
vt 0.732286 0.000000
vt 0.732286 0.100000
vt 0.000000 0.100000
vt 0.000000 0.000000
vt 0.493241 0.000000
vt 0.493241 0.548418
vt 0.000000 0.548418
vt 0.000000 0.000000
vt 0.493241 0.000000
vt 0.493241 0.548418
vt 0.000000 0.548418
vt 0.000000 0.000000
vt 0.100000 0.000000
vt 0.100000 0.548418
vt 0.000000 0.548418
vt 0.000000 0.000000
vt 0.100000 0.000000
vt 0.100000 0.548418
vt 0.000000 0.548418
vt 0.000000 0.000000
vt 0.493241 0.000000
vt 0.493241 0.100000
vt 0.000000 0.100000
vt 0.000000 0.000000
vt 0.493241 0.000000
vt 0.493241 0.100000
vt 0.000000 0.100000
vt 0.000000 0.000000
vt 0.450506 0.000000
vt 0.450506 0.985550
vt 0.000000 0.985550
vt 0.000000 0.000000
vt 0.450506 0.000000
vt 0.450506 0.985550
vt 0.000000 0.985550
vt 0.000000 0.000000
vt 0.100000 0.000000
vt 0.100000 0.985550
vt 0.000000 0.985550
vt 0.000000 0.000000
vt 0.100000 0.000000
vt 0.100000 0.985550
vt 0.000000 0.985550
vt 0.000000 0.000000
vt 0.450506 0.000000
vt 0.450506 0.100000
vt 0.000000 0.100000
vt 0.000000 0.000000
vt 0.450506 0.000000
vt 0.450506 0.100000
vt 0.000000 0.100000
vt 0.000000 0.000000
vt 0.631590 0.000000
vt 0.631590 0.318659
vt 0.000000 0.318659
vt 0.000000 0.000000
vt 0.631590 0.000000
vt 0.631590 0.318659
vt 0.000000 0.318659
vt 0.000000 0.000000
vt 0.100000 0.000000
vt 0.100000 0.318659
vt 0.000000 0.318659
vt 0.000000 0.000000
vt 0.100000 0.000000
vt 0.100000 0.318659
vt 0.000000 0.318659
vt 0.000000 0.000000
vt 0.631590 0.000000
vt 0.631590 0.100000
vt 0.000000 0.100000
vt 0.000000 0.000000
vt 0.631590 0.000000
vt 0.631590 0.100000
vt 0.000000 0.100000
vt 0.000000 0.000000
vt 0.366602 0.000000
vt 0.366602 0.423878
vt 0.000000 0.423878
vt 0.000000 0.000000
vt 0.366602 0.000000
vt 0.366602 0.423878
vt 0.000000 0.423878
vt 0.000000 0.000000
vt 0.100000 0.000000
vt 0.100000 0.423878
vt 0.000000 0.423878
vt 0.000000 0.000000
vt 0.100000 0.000000
vt 0.100000 0.423878
vt 0.000000 0.423878
vt 0.000000 0.000000
vt 0.366602 0.000000
vt 0.366602 0.100000
vt 0.000000 0.100000
vt 0.000000 0.000000
vt 0.366602 0.000000
vt 0.366602 0.100000
vt 0.000000 0.100000
vt 0.000000 0.000000
vt 0.534838 0.000000
vt 0.534838 0.519140
vt 0.000000 0.519140
vt 0.000000 0.000000
vt 0.534838 0.000000
vt 0.534838 0.519140
vt 0.000000 0.519140
vt 0.000000 0.000000
vt 0.100000 0.000000
vt 0.100000 0.519140
vt 0.000000 0.519140
vt 0.000000 0.000000
vt 0.100000 0.000000
vt 0.100000 0.519140
vt 0.000000 0.519140
vt 0.000000 0.000000
vt 0.534838 0.000000
vt 0.534838 0.100000
vt 0.000000 0.100000
vt 0.000000 0.000000
vt 0.534838 0.000000
vt 0.534838 0.100000
vt 0.000000 0.100000
vt 0.000000 0.000000
vt 0.620172 0.000000
vt 0.620172 1.991877
vt 0.000000 1.991877
vt 0.000000 0.000000
vt 0.620172 0.000000
vt 0.620172 1.991877
vt 0.000000 1.991877
vt 0.000000 0.000000
vt 0.100000 0.000000
vt 0.100000 1.991877
vt 0.000000 1.991877
vt 0.000000 0.000000
vt 0.100000 0.000000
vt 0.100000 1.991877
vt 0.000000 1.991877
vt 0.000000 0.000000
vt 0.620172 0.000000
vt 0.620172 0.100000
vt 0.000000 0.100000
vt 0.000000 0.000000
vt 0.620172 0.000000
vt 0.620172 0.100000
vt 0.000000 0.100000
vt 0.000000 0.000000
vt 0.620677 0.000000
vt 0.620677 0.483617
vt 0.000000 0.483617
vt 0.000000 0.000000
vt 0.620677 0.000000
vt 0.620677 0.483617
vt 0.000000 0.483617
vt 0.000000 0.000000
vt 0.100000 0.000000
vt 0.100000 0.483617
vt 0.000000 0.483617
vt 0.000000 0.000000
vt 0.100000 0.000000
vt 0.100000 0.483617
vt 0.000000 0.483617
vt 0.000000 0.000000
vt 0.620677 0.000000
vt 0.620677 0.100000
vt 0.000000 0.100000
vt 0.000000 0.000000
vt 0.620677 0.000000
vt 0.620677 0.100000
vt 0.000000 0.100000
vt 0.000000 0.000000
vt 0.382508 0.000000
vt 0.382508 0.756218
vt 0.000000 0.756218
vt 0.000000 0.000000
vt 0.382508 0.000000
vt 0.382508 0.756218
vt 0.000000 0.756218
vt 0.000000 0.000000
vt 0.100000 0.000000
vt 0.100000 0.756218
vt 0.000000 0.756218
vt 0.000000 0.000000
vt 0.100000 0.000000
vt 0.100000 0.756218
vt 0.000000 0.756218
vt 0.000000 0.000000
vt 0.382508 0.000000
vt 0.382508 0.100000
vt 0.000000 0.100000
vt 0.000000 0.000000
vt 0.382508 0.000000
vt 0.382508 0.100000
vt 0.000000 0.100000
vt 0.000000 0.000000
vt 0.653517 0.000000
vt 0.653517 1.701844
vt 0.000000 1.701844
vt 0.000000 0.000000
vt 0.653517 0.000000
vt 0.653517 1.701844
vt 0.000000 1.701844
vt 0.000000 0.000000
vt 0.100000 0.000000
vt 0.100000 1.701844
vt 0.000000 1.701844
vt 0.000000 0.000000
vt 0.100000 0.000000
vt 0.100000 1.701844
vt 0.000000 1.701844
vt 0.000000 0.000000
vt 0.653517 0.000000
vt 0.653517 0.100000
vt 0.000000 0.100000
vt 0.000000 0.000000
vt 0.653517 0.000000
vt 0.653517 0.100000
vt 0.000000 0.100000
vt 0.000000 0.000000
vt 0.391033 0.000000
vt 0.391033 1.186168
vt 0.000000 1.186168
vt 0.000000 0.000000
vt 0.391033 0.000000
vt 0.391033 1.186168
vt 0.000000 1.186168
vt 0.000000 0.000000
vt 0.100000 0.000000
vt 0.100000 1.186168
vt 0.000000 1.186168
vt 0.000000 0.000000
vt 0.100000 0.000000
vt 0.100000 1.186168
vt 0.000000 1.186168
vt 0.000000 0.000000
vt 0.391033 0.000000
vt 0.391033 0.100000
vt 0.000000 0.100000
vt 0.000000 0.000000
vt 0.391033 0.000000
vt 0.391033 0.100000
vt 0.000000 0.100000
vt 0.000000 0.000000
vt 0.439833 0.000000
vt 0.439833 0.857652
vt 0.000000 0.857652
vt 0.000000 0.000000
vt 0.439833 0.000000
vt 0.439833 0.857652
vt 0.000000 0.857652
vt 0.000000 0.000000
vt 0.100000 0.000000
vt 0.100000 0.857652
vt 0.000000 0.857652
vt 0.000000 0.000000
vt 0.100000 0.000000
vt 0.100000 0.857652
vt 0.000000 0.857652
vt 0.000000 0.000000
vt 0.439833 0.000000
vt 0.439833 0.100000
vt 0.000000 0.100000
vt 0.000000 0.000000
vt 0.439833 0.000000
vt 0.439833 0.100000
vt 0.000000 0.100000
vt 0.000000 0.000000
vt 0.563267 0.000000
vt 0.563267 0.599671
vt 0.000000 0.599671
vt 0.000000 0.000000
vt 0.563267 0.000000
vt 0.563267 0.599671
vt 0.000000 0.599671
vt 0.000000 0.000000
vt 0.100000 0.000000
vt 0.100000 0.599671
vt 0.000000 0.599671
vt 0.000000 0.000000
vt 0.100000 0.000000
vt 0.100000 0.599671
vt 0.000000 0.599671
vt 0.000000 0.000000
vt 0.563267 0.000000
vt 0.563267 0.100000
vt 0.000000 0.100000
vt 0.000000 0.000000
vt 0.563267 0.000000
vt 0.563267 0.100000
vt 0.000000 0.100000
vt 0.000000 0.000000
vt 0.488856 0.000000
vt 0.488856 0.997235
vt 0.000000 0.997235
vt 0.000000 0.000000
vt 0.488856 0.000000
vt 0.488856 0.997235
vt 0.000000 0.997235
vt 0.000000 0.000000
vt 0.100000 0.000000
vt 0.100000 0.997235
vt 0.000000 0.997235
vt 0.000000 0.000000
vt 0.100000 0.000000
vt 0.100000 0.997235
vt 0.000000 0.997235
vt 0.000000 0.000000
vt 0.488856 0.000000
vt 0.488856 0.100000
vt 0.000000 0.100000
vt 0.000000 0.000000
vt 0.488856 0.000000
vt 0.488856 0.100000
vt 0.000000 0.100000
vt 0.000000 0.000000
vt 0.560000 0.000000
vt 0.560000 1.100000
vt 0.000000 1.100000
vt 0.000000 0.000000
vt 0.560000 0.000000
vt 0.560000 1.100000
vt 0.000000 1.100000
vt 0.000000 0.000000
vt 0.100000 0.000000
vt 0.100000 1.100000
vt 0.000000 1.100000
vt 0.000000 0.000000
vt 0.100000 0.000000
vt 0.100000 1.100000
vt 0.000000 1.100000
vt 0.000000 0.000000
vt 0.560000 0.000000
vt 0.560000 0.100000
vt 0.000000 0.100000
vt 0.000000 0.000000
vt 0.560000 0.000000
vt 0.560000 0.100000
vt 0.000000 0.100000
vt 0.000000 0.000000
vt 0.560000 0.000000
vt 0.560000 1.100000
vt 0.000000 1.100000
vt 0.000000 0.000000
vt 0.560000 0.000000
vt 0.560000 1.100000
vt 0.000000 1.100000
vt 0.000000 0.000000
vt 0.100000 0.000000
vt 0.100000 1.100000
vt 0.000000 1.100000
vt 0.000000 0.000000
vt 0.100000 0.000000
vt 0.100000 1.100000
vt 0.000000 1.100000
vt 0.000000 0.000000
vt 0.560000 0.000000
vt 0.560000 0.100000
vt 0.000000 0.100000
vt 0.000000 0.000000
vt 0.560000 0.000000
vt 0.560000 0.100000
vt 0.000000 0.100000
vt 0.000000 0.000000
vt 0.560000 0.000000
vt 0.560000 1.100000
vt 0.000000 1.100000
vt 0.000000 0.000000
vt 0.560000 0.000000
vt 0.560000 1.100000
vt 0.000000 1.100000
vt 0.000000 0.000000
vt 0.100000 0.000000
vt 0.100000 1.100000
vt 0.000000 1.100000
vt 0.000000 0.000000
vt 0.100000 0.000000
vt 0.100000 1.100000
vt 0.000000 1.100000
vt 0.000000 0.000000
vt 0.560000 0.000000
vt 0.560000 0.100000
vt 0.000000 0.100000
vt 0.000000 0.000000
vt 0.560000 0.000000
vt 0.560000 0.100000
vt 0.000000 0.100000
vt 0.000000 0.000000
vt 0.560000 0.000000
vt 0.560000 1.100000
vt 0.000000 1.100000
vt 0.000000 0.000000
vt 0.560000 0.000000
vt 0.560000 1.100000
vt 0.000000 1.100000
vt 0.000000 0.000000
vt 0.100000 0.000000
vt 0.100000 1.100000
vt 0.000000 1.100000
vt 0.000000 0.000000
vt 0.100000 0.000000
vt 0.100000 1.100000
vt 0.000000 1.100000
vt 0.000000 0.000000
vt 0.560000 0.000000
vt 0.560000 0.100000
vt 0.000000 0.100000
vt 0.000000 0.000000
vt 0.560000 0.000000
vt 0.560000 0.100000
vt 0.000000 0.100000
vn 0.000000 0.000000 1.000000
vn 0.000000 0.000000 -1.000000
vn 1.000000 0.000000 0.000000
vn -1.000000 0.000000 0.000000
vn 0.000000 1.000000 0.000000
vn 0.000000 -1.000000 0.000000
o WallBody
usemtl Concrete
f 1/1/1 2/2/1 3/3/1
f 1/1/1 3/3/1 4/4/1
f 5/5/2 6/6/2 7/7/2
f 5/5/2 7/7/2 8/8/2
f 9/9/3 10/10/3 11/11/3
f 9/9/3 11/11/3 12/12/3
f 13/13/4 14/14/4 15/15/4
f 13/13/4 15/15/4 16/16/4
f 17/17/5 18/18/5 19/19/5
f 17/17/5 19/19/5 20/20/5
f 21/21/6 22/22/6 23/23/6
f 21/21/6 23/23/6 24/24/6
o Buttresses
usemtl Concrete
f 25/25/1 26/26/1 27/27/1
f 25/25/1 27/27/1 28/28/1
f 29/29/2 30/30/2 31/31/2
f 29/29/2 31/31/2 32/32/2
f 33/33/3 34/34/3 35/35/3
f 33/33/3 35/35/3 36/36/3
f 37/37/4 38/38/4 39/39/4
f 37/37/4 39/39/4 40/40/4
f 41/41/5 42/42/5 43/43/5
f 41/41/5 43/43/5 44/44/5
f 45/45/6 46/46/6 47/47/6
f 45/45/6 47/47/6 48/48/6
f 49/49/1 50/50/1 51/51/1
f 49/49/1 51/51/1 52/52/1
f 53/53/2 54/54/2 55/55/2
f 53/53/2 55/55/2 56/56/2
f 57/57/3 58/58/3 59/59/3
f 57/57/3 59/59/3 60/60/3
f 61/61/4 62/62/4 63/63/4
f 61/61/4 63/63/4 64/64/4
f 65/65/5 66/66/5 67/67/5
f 65/65/5 67/67/5 68/68/5
f 69/69/6 70/70/6 71/71/6
f 69/69/6 71/71/6 72/72/6
f 73/73/1 74/74/1 75/75/1
f 73/73/1 75/75/1 76/76/1
f 77/77/2 78/78/2 79/79/2
f 77/77/2 79/79/2 80/80/2
f 81/81/3 82/82/3 83/83/3
f 81/81/3 83/83/3 84/84/3
f 85/85/4 86/86/4 87/87/4
f 85/85/4 87/87/4 88/88/4
f 89/89/5 90/90/5 91/91/5
f 89/89/5 91/91/5 92/92/5
f 93/93/6 94/94/6 95/95/6
f 93/93/6 95/95/6 96/96/6
f 97/97/1 98/98/1 99/99/1
f 97/97/1 99/99/1 100/100/1
f 101/101/2 102/102/2 103/103/2
f 101/101/2 103/103/2 104/104/2
f 105/105/3 106/106/3 107/107/3
f 105/105/3 107/107/3 108/108/3
f 109/109/4 110/110/4 111/111/4
f 109/109/4 111/111/4 112/112/4
f 113/113/5 114/114/5 115/115/5
f 113/113/5 115/115/5 116/116/5
f 117/117/6 118/118/6 119/119/6
f 117/117/6 119/119/6 120/120/6
o Caps
usemtl Concrete
f 121/121/1 122/122/1 123/123/1
f 121/121/1 123/123/1 124/124/1
f 125/125/2 126/126/2 127/127/2
f 125/125/2 127/127/2 128/128/2
f 129/129/3 130/130/3 131/131/3
f 129/129/3 131/131/3 132/132/3
f 133/133/4 134/134/4 135/135/4
f 133/133/4 135/135/4 136/136/4
f 137/137/5 138/138/5 139/139/5
f 137/137/5 139/139/5 140/140/5
f 141/141/6 142/142/6 143/143/6
f 141/141/6 143/143/6 144/144/6
f 145/145/1 146/146/1 147/147/1
f 145/145/1 147/147/1 148/148/1
f 149/149/2 150/150/2 151/151/2
f 149/149/2 151/151/2 152/152/2
f 153/153/3 154/154/3 155/155/3
f 153/153/3 155/155/3 156/156/3
f 157/157/4 158/158/4 159/159/4
f 157/157/4 159/159/4 160/160/4
f 161/161/5 162/162/5 163/163/5
f 161/161/5 163/163/5 164/164/5
f 165/165/6 166/166/6 167/167/6
f 165/165/6 167/167/6 168/168/6
o PanelJoints
usemtl Joint
f 169/169/1 170/170/1 171/171/1
f 169/169/1 171/171/1 172/172/1
f 173/173/2 174/174/2 175/175/2
f 173/173/2 175/175/2 176/176/2
f 177/177/3 178/178/3 179/179/3
f 177/177/3 179/179/3 180/180/3
f 181/181/4 182/182/4 183/183/4
f 181/181/4 183/183/4 184/184/4
f 185/185/5 186/186/5 187/187/5
f 185/185/5 187/187/5 188/188/5
f 189/189/6 190/190/6 191/191/6
f 189/189/6 191/191/6 192/192/6
f 193/193/1 194/194/1 195/195/1
f 193/193/1 195/195/1 196/196/1
f 197/197/2 198/198/2 199/199/2
f 197/197/2 199/199/2 200/200/2
f 201/201/3 202/202/3 203/203/3
f 201/201/3 203/203/3 204/204/3
f 205/205/4 206/206/4 207/207/4
f 205/205/4 207/207/4 208/208/4
f 209/209/5 210/210/5 211/211/5
f 209/209/5 211/211/5 212/212/5
f 213/213/6 214/214/6 215/215/6
f 213/213/6 215/215/6 216/216/6
f 217/217/1 218/218/1 219/219/1
f 217/217/1 219/219/1 220/220/1
f 221/221/2 222/222/2 223/223/2
f 221/221/2 223/223/2 224/224/2
f 225/225/3 226/226/3 227/227/3
f 225/225/3 227/227/3 228/228/3
f 229/229/4 230/230/4 231/231/4
f 229/229/4 231/231/4 232/232/4
f 233/233/5 234/234/5 235/235/5
f 233/233/5 235/235/5 236/236/5
f 237/237/6 238/238/6 239/239/6
f 237/237/6 239/239/6 240/240/6
f 241/241/1 242/242/1 243/243/1
f 241/241/1 243/243/1 244/244/1
f 245/245/2 246/246/2 247/247/2
f 245/245/2 247/247/2 248/248/2
f 249/249/3 250/250/3 251/251/3
f 249/249/3 251/251/3 252/252/3
f 253/253/4 254/254/4 255/255/4
f 253/253/4 255/255/4 256/256/4
f 257/257/5 258/258/5 259/259/5
f 257/257/5 259/259/5 260/260/5
f 261/261/6 262/262/6 263/263/6
f 261/261/6 263/263/6 264/264/6
f 265/265/1 266/266/1 267/267/1
f 265/265/1 267/267/1 268/268/1
f 269/269/2 270/270/2 271/271/2
f 269/269/2 271/271/2 272/272/2
f 273/273/3 274/274/3 275/275/3
f 273/273/3 275/275/3 276/276/3
f 277/277/4 278/278/4 279/279/4
f 277/277/4 279/279/4 280/280/4
f 281/281/5 282/282/5 283/283/5
f 281/281/5 283/283/5 284/284/5
f 285/285/6 286/286/6 287/287/6
f 285/285/6 287/287/6 288/288/6
f 289/289/1 290/290/1 291/291/1
f 289/289/1 291/291/1 292/292/1
f 293/293/2 294/294/2 295/295/2
f 293/293/2 295/295/2 296/296/2
f 297/297/3 298/298/3 299/299/3
f 297/297/3 299/299/3 300/300/3
f 301/301/4 302/302/4 303/303/4
f 301/301/4 303/303/4 304/304/4
f 305/305/5 306/306/5 307/307/5
f 305/305/5 307/307/5 308/308/5
f 309/309/6 310/310/6 311/311/6
f 309/309/6 311/311/6 312/312/6
f 313/313/1 314/314/1 315/315/1
f 313/313/1 315/315/1 316/316/1
f 317/317/2 318/318/2 319/319/2
f 317/317/2 319/319/2 320/320/2
f 321/321/3 322/322/3 323/323/3
f 321/321/3 323/323/3 324/324/3
f 325/325/4 326/326/4 327/327/4
f 325/325/4 327/327/4 328/328/4
f 329/329/5 330/330/5 331/331/5
f 329/329/5 331/331/5 332/332/5
f 333/333/6 334/334/6 335/335/6
f 333/333/6 335/335/6 336/336/6
f 337/337/1 338/338/1 339/339/1
f 337/337/1 339/339/1 340/340/1
f 341/341/2 342/342/2 343/343/2
f 341/341/2 343/343/2 344/344/2
f 345/345/3 346/346/3 347/347/3
f 345/345/3 347/347/3 348/348/3
f 349/349/4 350/350/4 351/351/4
f 349/349/4 351/351/4 352/352/4
f 353/353/5 354/354/5 355/355/5
f 353/353/5 355/355/5 356/356/5
f 357/357/6 358/358/6 359/359/6
f 357/357/6 359/359/6 360/360/6
f 361/361/1 362/362/1 363/363/1
f 361/361/1 363/363/1 364/364/1
f 365/365/2 366/366/2 367/367/2
f 365/365/2 367/367/2 368/368/2
f 369/369/3 370/370/3 371/371/3
f 369/369/3 371/371/3 372/372/3
f 373/373/4 374/374/4 375/375/4
f 373/373/4 375/375/4 376/376/4
f 377/377/5 378/378/5 379/379/5
f 377/377/5 379/379/5 380/380/5
f 381/381/6 382/382/6 383/383/6
f 381/381/6 383/383/6 384/384/6
f 385/385/1 386/386/1 387/387/1
f 385/385/1 387/387/1 388/388/1
f 389/389/2 390/390/2 391/391/2
f 389/389/2 391/391/2 392/392/2
f 393/393/3 394/394/3 395/395/3
f 393/393/3 395/395/3 396/396/3
f 397/397/4 398/398/4 399/399/4
f 397/397/4 399/399/4 400/400/4
f 401/401/5 402/402/5 403/403/5
f 401/401/5 403/403/5 404/404/5
f 405/405/6 406/406/6 407/407/6
f 405/405/6 407/407/6 408/408/6
o RepairPlates
usemtl Concrete
f 409/409/1 410/410/1 411/411/1
f 409/409/1 411/411/1 412/412/1
f 413/413/2 414/414/2 415/415/2
f 413/413/2 415/415/2 416/416/2
f 417/417/3 418/418/3 419/419/3
f 417/417/3 419/419/3 420/420/3
f 421/421/4 422/422/4 423/423/4
f 421/421/4 423/423/4 424/424/4
f 425/425/5 426/426/5 427/427/5
f 425/425/5 427/427/5 428/428/5
f 429/429/6 430/430/6 431/431/6
f 429/429/6 431/431/6 432/432/6
f 433/433/1 434/434/1 435/435/1
f 433/433/1 435/435/1 436/436/1
f 437/437/2 438/438/2 439/439/2
f 437/437/2 439/439/2 440/440/2
f 441/441/3 442/442/3 443/443/3
f 441/441/3 443/443/3 444/444/3
f 445/445/4 446/446/4 447/447/4
f 445/445/4 447/447/4 448/448/4
f 449/449/5 450/450/5 451/451/5
f 449/449/5 451/451/5 452/452/5
f 453/453/6 454/454/6 455/455/6
f 453/453/6 455/455/6 456/456/6
f 457/457/1 458/458/1 459/459/1
f 457/457/1 459/459/1 460/460/1
f 461/461/2 462/462/2 463/463/2
f 461/461/2 463/463/2 464/464/2
f 465/465/3 466/466/3 467/467/3
f 465/465/3 467/467/3 468/468/3
f 469/469/4 470/470/4 471/471/4
f 469/469/4 471/471/4 472/472/4
f 473/473/5 474/474/5 475/475/5
f 473/473/5 475/475/5 476/476/5
f 477/477/6 478/478/6 479/479/6
f 477/477/6 479/479/6 480/480/6
f 481/481/1 482/482/1 483/483/1
f 481/481/1 483/483/1 484/484/1
f 485/485/2 486/486/2 487/487/2
f 485/485/2 487/487/2 488/488/2
f 489/489/3 490/490/3 491/491/3
f 489/489/3 491/491/3 492/492/3
f 493/493/4 494/494/4 495/495/4
f 493/493/4 495/495/4 496/496/4
f 497/497/5 498/498/5 499/499/5
f 497/497/5 499/499/5 500/500/5
f 501/501/6 502/502/6 503/503/6
f 501/501/6 503/503/6 504/504/6
f 505/505/1 506/506/1 507/507/1
f 505/505/1 507/507/1 508/508/1
f 509/509/2 510/510/2 511/511/2
f 509/509/2 511/511/2 512/512/2
f 513/513/3 514/514/3 515/515/3
f 513/513/3 515/515/3 516/516/3
f 517/517/4 518/518/4 519/519/4
f 517/517/4 519/519/4 520/520/4
f 521/521/5 522/522/5 523/523/5
f 521/521/5 523/523/5 524/524/5
f 525/525/6 526/526/6 527/527/6
f 525/525/6 527/527/6 528/528/6
f 529/529/1 530/530/1 531/531/1
f 529/529/1 531/531/1 532/532/1
f 533/533/2 534/534/2 535/535/2
f 533/533/2 535/535/2 536/536/2
f 537/537/3 538/538/3 539/539/3
f 537/537/3 539/539/3 540/540/3
f 541/541/4 542/542/4 543/543/4
f 541/541/4 543/543/4 544/544/4
f 545/545/5 546/546/5 547/547/5
f 545/545/5 547/547/5 548/548/5
f 549/549/6 550/550/6 551/551/6
f 549/549/6 551/551/6 552/552/6
o MossCap
usemtl Moss
f 553/553/1 554/554/1 555/555/1
f 553/553/1 555/555/1 556/556/1
f 557/557/2 558/558/2 559/559/2
f 557/557/2 559/559/2 560/560/2
f 561/561/3 562/562/3 563/563/3
f 561/561/3 563/563/3 564/564/3
f 565/565/4 566/566/4 567/567/4
f 565/565/4 567/567/4 568/568/4
f 569/569/5 570/570/5 571/571/5
f 569/569/5 571/571/5 572/572/5
f 573/573/6 574/574/6 575/575/6
f 573/573/6 575/575/6 576/576/6
o Moss_Back
usemtl Moss
f 577/577/1 578/578/1 579/579/1
f 577/577/1 579/579/1 580/580/1
f 581/581/2 582/582/2 583/583/2
f 581/581/2 583/583/2 584/584/2
f 585/585/3 586/586/3 587/587/3
f 585/585/3 587/587/3 588/588/3
f 589/589/4 590/590/4 591/591/4
f 589/589/4 591/591/4 592/592/4
f 593/593/5 594/594/5 595/595/5
f 593/593/5 595/595/5 596/596/5
f 597/597/6 598/598/6 599/599/6
f 597/597/6 599/599/6 600/600/6
f 601/601/1 602/602/1 603/603/1
f 601/601/1 603/603/1 604/604/1
f 605/605/2 606/606/2 607/607/2
f 605/605/2 607/607/2 608/608/2
f 609/609/3 610/610/3 611/611/3
f 609/609/3 611/611/3 612/612/3
f 613/613/4 614/614/4 615/615/4
f 613/613/4 615/615/4 616/616/4
f 617/617/5 618/618/5 619/619/5
f 617/617/5 619/619/5 620/620/5
f 621/621/6 622/622/6 623/623/6
f 621/621/6 623/623/6 624/624/6
f 625/625/1 626/626/1 627/627/1
f 625/625/1 627/627/1 628/628/1
f 629/629/2 630/630/2 631/631/2
f 629/629/2 631/631/2 632/632/2
f 633/633/3 634/634/3 635/635/3
f 633/633/3 635/635/3 636/636/3
f 637/637/4 638/638/4 639/639/4
f 637/637/4 639/639/4 640/640/4
f 641/641/5 642/642/5 643/643/5
f 641/641/5 643/643/5 644/644/5
f 645/645/6 646/646/6 647/647/6
f 645/645/6 647/647/6 648/648/6
f 649/649/1 650/650/1 651/651/1
f 649/649/1 651/651/1 652/652/1
f 653/653/2 654/654/2 655/655/2
f 653/653/2 655/655/2 656/656/2
f 657/657/3 658/658/3 659/659/3
f 657/657/3 659/659/3 660/660/3
f 661/661/4 662/662/4 663/663/4
f 661/661/4 663/663/4 664/664/4
f 665/665/5 666/666/5 667/667/5
f 665/665/5 667/667/5 668/668/5
f 669/669/6 670/670/6 671/671/6
f 669/669/6 671/671/6 672/672/6
f 673/673/1 674/674/1 675/675/1
f 673/673/1 675/675/1 676/676/1
f 677/677/2 678/678/2 679/679/2
f 677/677/2 679/679/2 680/680/2
f 681/681/3 682/682/3 683/683/3
f 681/681/3 683/683/3 684/684/3
f 685/685/4 686/686/4 687/687/4
f 685/685/4 687/687/4 688/688/4
f 689/689/5 690/690/5 691/691/5
f 689/689/5 691/691/5 692/692/5
f 693/693/6 694/694/6 695/695/6
f 693/693/6 695/695/6 696/696/6
f 697/697/1 698/698/1 699/699/1
f 697/697/1 699/699/1 700/700/1
f 701/701/2 702/702/2 703/703/2
f 701/701/2 703/703/2 704/704/2
f 705/705/3 706/706/3 707/707/3
f 705/705/3 707/707/3 708/708/3
f 709/709/4 710/710/4 711/711/4
f 709/709/4 711/711/4 712/712/4
f 713/713/5 714/714/5 715/715/5
f 713/713/5 715/715/5 716/716/5
f 717/717/6 718/718/6 719/719/6
f 717/717/6 719/719/6 720/720/6
f 721/721/1 722/722/1 723/723/1
f 721/721/1 723/723/1 724/724/1
f 725/725/2 726/726/2 727/727/2
f 725/725/2 727/727/2 728/728/2
f 729/729/3 730/730/3 731/731/3
f 729/729/3 731/731/3 732/732/3
f 733/733/4 734/734/4 735/735/4
f 733/733/4 735/735/4 736/736/4
f 737/737/5 738/738/5 739/739/5
f 737/737/5 739/739/5 740/740/5
f 741/741/6 742/742/6 743/743/6
f 741/741/6 743/743/6 744/744/6
f 745/745/1 746/746/1 747/747/1
f 745/745/1 747/747/1 748/748/1
f 749/749/2 750/750/2 751/751/2
f 749/749/2 751/751/2 752/752/2
f 753/753/3 754/754/3 755/755/3
f 753/753/3 755/755/3 756/756/3
f 757/757/4 758/758/4 759/759/4
f 757/757/4 759/759/4 760/760/4
f 761/761/5 762/762/5 763/763/5
f 761/761/5 763/763/5 764/764/5
f 765/765/6 766/766/6 767/767/6
f 765/765/6 767/767/6 768/768/6
f 769/769/1 770/770/1 771/771/1
f 769/769/1 771/771/1 772/772/1
f 773/773/2 774/774/2 775/775/2
f 773/773/2 775/775/2 776/776/2
f 777/777/3 778/778/3 779/779/3
f 777/777/3 779/779/3 780/780/3
f 781/781/4 782/782/4 783/783/4
f 781/781/4 783/783/4 784/784/4
f 785/785/5 786/786/5 787/787/5
f 785/785/5 787/787/5 788/788/5
f 789/789/6 790/790/6 791/791/6
f 789/789/6 791/791/6 792/792/6
f 793/793/1 794/794/1 795/795/1
f 793/793/1 795/795/1 796/796/1
f 797/797/2 798/798/2 799/799/2
f 797/797/2 799/799/2 800/800/2
f 801/801/3 802/802/3 803/803/3
f 801/801/3 803/803/3 804/804/3
f 805/805/4 806/806/4 807/807/4
f 805/805/4 807/807/4 808/808/4
f 809/809/5 810/810/5 811/811/5
f 809/809/5 811/811/5 812/812/5
f 813/813/6 814/814/6 815/815/6
f 813/813/6 815/815/6 816/816/6
f 817/817/1 818/818/1 819/819/1
f 817/817/1 819/819/1 820/820/1
f 821/821/2 822/822/2 823/823/2
f 821/821/2 823/823/2 824/824/2
f 825/825/3 826/826/3 827/827/3
f 825/825/3 827/827/3 828/828/3
f 829/829/4 830/830/4 831/831/4
f 829/829/4 831/831/4 832/832/4
f 833/833/5 834/834/5 835/835/5
f 833/833/5 835/835/5 836/836/5
f 837/837/6 838/838/6 839/839/6
f 837/837/6 839/839/6 840/840/6
f 841/841/1 842/842/1 843/843/1
f 841/841/1 843/843/1 844/844/1
f 845/845/2 846/846/2 847/847/2
f 845/845/2 847/847/2 848/848/2
f 849/849/3 850/850/3 851/851/3
f 849/849/3 851/851/3 852/852/3
f 853/853/4 854/854/4 855/855/4
f 853/853/4 855/855/4 856/856/4
f 857/857/5 858/858/5 859/859/5
f 857/857/5 859/859/5 860/860/5
f 861/861/6 862/862/6 863/863/6
f 861/861/6 863/863/6 864/864/6
o Moss_Front
usemtl Moss
f 865/865/1 866/866/1 867/867/1
f 865/865/1 867/867/1 868/868/1
f 869/869/2 870/870/2 871/871/2
f 869/869/2 871/871/2 872/872/2
f 873/873/3 874/874/3 875/875/3
f 873/873/3 875/875/3 876/876/3
f 877/877/4 878/878/4 879/879/4
f 877/877/4 879/879/4 880/880/4
f 881/881/5 882/882/5 883/883/5
f 881/881/5 883/883/5 884/884/5
f 885/885/6 886/886/6 887/887/6
f 885/885/6 887/887/6 888/888/6
f 889/889/1 890/890/1 891/891/1
f 889/889/1 891/891/1 892/892/1
f 893/893/2 894/894/2 895/895/2
f 893/893/2 895/895/2 896/896/2
f 897/897/3 898/898/3 899/899/3
f 897/897/3 899/899/3 900/900/3
f 901/901/4 902/902/4 903/903/4
f 901/901/4 903/903/4 904/904/4
f 905/905/5 906/906/5 907/907/5
f 905/905/5 907/907/5 908/908/5
f 909/909/6 910/910/6 911/911/6
f 909/909/6 911/911/6 912/912/6
f 913/913/1 914/914/1 915/915/1
f 913/913/1 915/915/1 916/916/1
f 917/917/2 918/918/2 919/919/2
f 917/917/2 919/919/2 920/920/2
f 921/921/3 922/922/3 923/923/3
f 921/921/3 923/923/3 924/924/3
f 925/925/4 926/926/4 927/927/4
f 925/925/4 927/927/4 928/928/4
f 929/929/5 930/930/5 931/931/5
f 929/929/5 931/931/5 932/932/5
f 933/933/6 934/934/6 935/935/6
f 933/933/6 935/935/6 936/936/6
f 937/937/1 938/938/1 939/939/1
f 937/937/1 939/939/1 940/940/1
f 941/941/2 942/942/2 943/943/2
f 941/941/2 943/943/2 944/944/2
f 945/945/3 946/946/3 947/947/3
f 945/945/3 947/947/3 948/948/3
f 949/949/4 950/950/4 951/951/4
f 949/949/4 951/951/4 952/952/4
f 953/953/5 954/954/5 955/955/5
f 953/953/5 955/955/5 956/956/5
f 957/957/6 958/958/6 959/959/6
f 957/957/6 959/959/6 960/960/6
f 961/961/1 962/962/1 963/963/1
f 961/961/1 963/963/1 964/964/1
f 965/965/2 966/966/2 967/967/2
f 965/965/2 967/967/2 968/968/2
f 969/969/3 970/970/3 971/971/3
f 969/969/3 971/971/3 972/972/3
f 973/973/4 974/974/4 975/975/4
f 973/973/4 975/975/4 976/976/4
f 977/977/5 978/978/5 979/979/5
f 977/977/5 979/979/5 980/980/5
f 981/981/6 982/982/6 983/983/6
f 981/981/6 983/983/6 984/984/6
f 985/985/1 986/986/1 987/987/1
f 985/985/1 987/987/1 988/988/1
f 989/989/2 990/990/2 991/991/2
f 989/989/2 991/991/2 992/992/2
f 993/993/3 994/994/3 995/995/3
f 993/993/3 995/995/3 996/996/3
f 997/997/4 998/998/4 999/999/4
f 997/997/4 999/999/4 1000/1000/4
f 1001/1001/5 1002/1002/5 1003/1003/5
f 1001/1001/5 1003/1003/5 1004/1004/5
f 1005/1005/6 1006/1006/6 1007/1007/6
f 1005/1005/6 1007/1007/6 1008/1008/6
f 1009/1009/1 1010/1010/1 1011/1011/1
f 1009/1009/1 1011/1011/1 1012/1012/1
f 1013/1013/2 1014/1014/2 1015/1015/2
f 1013/1013/2 1015/1015/2 1016/1016/2
f 1017/1017/3 1018/1018/3 1019/1019/3
f 1017/1017/3 1019/1019/3 1020/1020/3
f 1021/1021/4 1022/1022/4 1023/1023/4
f 1021/1021/4 1023/1023/4 1024/1024/4
f 1025/1025/5 1026/1026/5 1027/1027/5
f 1025/1025/5 1027/1027/5 1028/1028/5
f 1029/1029/6 1030/1030/6 1031/1031/6
f 1029/1029/6 1031/1031/6 1032/1032/6
f 1033/1033/1 1034/1034/1 1035/1035/1
f 1033/1033/1 1035/1035/1 1036/1036/1
f 1037/1037/2 1038/1038/2 1039/1039/2
f 1037/1037/2 1039/1039/2 1040/1040/2
f 1041/1041/3 1042/1042/3 1043/1043/3
f 1041/1041/3 1043/1043/3 1044/1044/3
f 1045/1045/4 1046/1046/4 1047/1047/4
f 1045/1045/4 1047/1047/4 1048/1048/4
f 1049/1049/5 1050/1050/5 1051/1051/5
f 1049/1049/5 1051/1051/5 1052/1052/5
f 1053/1053/6 1054/1054/6 1055/1055/6
f 1053/1053/6 1055/1055/6 1056/1056/6
f 1057/1057/1 1058/1058/1 1059/1059/1
f 1057/1057/1 1059/1059/1 1060/1060/1
f 1061/1061/2 1062/1062/2 1063/1063/2
f 1061/1061/2 1063/1063/2 1064/1064/2
f 1065/1065/3 1066/1066/3 1067/1067/3
f 1065/1065/3 1067/1067/3 1068/1068/3
f 1069/1069/4 1070/1070/4 1071/1071/4
f 1069/1069/4 1071/1071/4 1072/1072/4
f 1073/1073/5 1074/1074/5 1075/1075/5
f 1073/1073/5 1075/1075/5 1076/1076/5
f 1077/1077/6 1078/1078/6 1079/1079/6
f 1077/1077/6 1079/1079/6 1080/1080/6
f 1081/1081/1 1082/1082/1 1083/1083/1
f 1081/1081/1 1083/1083/1 1084/1084/1
f 1085/1085/2 1086/1086/2 1087/1087/2
f 1085/1085/2 1087/1087/2 1088/1088/2
f 1089/1089/3 1090/1090/3 1091/1091/3
f 1089/1089/3 1091/1091/3 1092/1092/3
f 1093/1093/4 1094/1094/4 1095/1095/4
f 1093/1093/4 1095/1095/4 1096/1096/4
f 1097/1097/5 1098/1098/5 1099/1099/5
f 1097/1097/5 1099/1099/5 1100/1100/5
f 1101/1101/6 1102/1102/6 1103/1103/6
f 1101/1101/6 1103/1103/6 1104/1104/6
o MossPatches
usemtl Moss
f 1105/1105/1 1106/1106/1 1107/1107/1
f 1105/1105/1 1107/1107/1 1108/1108/1
f 1109/1109/2 1110/1110/2 1111/1111/2
f 1109/1109/2 1111/1111/2 1112/1112/2
f 1113/1113/3 1114/1114/3 1115/1115/3
f 1113/1113/3 1115/1115/3 1116/1116/3
f 1117/1117/4 1118/1118/4 1119/1119/4
f 1117/1117/4 1119/1119/4 1120/1120/4
f 1121/1121/5 1122/1122/5 1123/1123/5
f 1121/1121/5 1123/1123/5 1124/1124/5
f 1125/1125/6 1126/1126/6 1127/1127/6
f 1125/1125/6 1127/1127/6 1128/1128/6
f 1129/1129/1 1130/1130/1 1131/1131/1
f 1129/1129/1 1131/1131/1 1132/1132/1
f 1133/1133/2 1134/1134/2 1135/1135/2
f 1133/1133/2 1135/1135/2 1136/1136/2
f 1137/1137/3 1138/1138/3 1139/1139/3
f 1137/1137/3 1139/1139/3 1140/1140/3
f 1141/1141/4 1142/1142/4 1143/1143/4
f 1141/1141/4 1143/1143/4 1144/1144/4
f 1145/1145/5 1146/1146/5 1147/1147/5
f 1145/1145/5 1147/1147/5 1148/1148/5
f 1149/1149/6 1150/1150/6 1151/1151/6
f 1149/1149/6 1151/1151/6 1152/1152/6
f 1153/1153/1 1154/1154/1 1155/1155/1
f 1153/1153/1 1155/1155/1 1156/1156/1
f 1157/1157/2 1158/1158/2 1159/1159/2
f 1157/1157/2 1159/1159/2 1160/1160/2
f 1161/1161/3 1162/1162/3 1163/1163/3
f 1161/1161/3 1163/1163/3 1164/1164/3
f 1165/1165/4 1166/1166/4 1167/1167/4
f 1165/1165/4 1167/1167/4 1168/1168/4
f 1169/1169/5 1170/1170/5 1171/1171/5
f 1169/1169/5 1171/1171/5 1172/1172/5
f 1173/1173/6 1174/1174/6 1175/1175/6
f 1173/1173/6 1175/1175/6 1176/1176/6
f 1177/1177/1 1178/1178/1 1179/1179/1
f 1177/1177/1 1179/1179/1 1180/1180/1
f 1181/1181/2 1182/1182/2 1183/1183/2
f 1181/1181/2 1183/1183/2 1184/1184/2
f 1185/1185/3 1186/1186/3 1187/1187/3
f 1185/1185/3 1187/1187/3 1188/1188/3
f 1189/1189/4 1190/1190/4 1191/1191/4
f 1189/1189/4 1191/1191/4 1192/1192/4
f 1193/1193/5 1194/1194/5 1195/1195/5
f 1193/1193/5 1195/1195/5 1196/1196/5
f 1197/1197/6 1198/1198/6 1199/1199/6
f 1197/1197/6 1199/1199/6 1200/1200/6
